<svg width="1024" height="1024" viewBox="0 0 1024 1024" fill="none" xmlns="http://www.w3.org/2000/svg">
<rect width="1024" height="1024" fill="#1E1E1E"/>
<g id="perplexed">
<g id="leo">
<g id="ear_R">
<path id="ear_outer_R" d="M138.338 350.761C116.686 447.986 207.347 512.731 221.954 521.973L324.042 368.561C318.131 344.192 315.099 307.527 284.077 280.295C223.765 231.386 159.991 253.537 138.338 350.761Z" fill="#C8C8C8" stroke="black" stroke-width="8"/>
<path id="ear_inner_R" d="M169.483 356.216C160.648 409.876 203.412 469.489 234.091 479.732L279.069 399.326C275.236 383.526 263.169 347.964 246.475 327.044C205.842 276.127 177.653 306.602 169.483 356.216Z" fill="#465560" stroke="black" stroke-width="6"/>
<path id="highlight" opacity="0.55" d="M328.024 334.683C313.334 314.361 281.396 276.159 238.59 262.934C217.399 255.436 187.574 266.886 167.876 293.533C157.974 306.927 143.295 342.434 142.814 365.577C151.22 347.279 158.928 294.056 201.935 274.178C230.998 260.745 256.349 288.054 328.024 334.683Z" fill="#EBECED"/>
<path id="ear_inner_shadow" d="M207.742 334.465C220.983 342.049 245.765 405.687 256.501 436.558C264.401 459.275 195.157 442.045 195.157 442.045C195.157 442.045 230.803 491.796 261.518 474.824C304.595 451.022 285.136 416.901 285.136 416.901C279.62 401.891 259.853 353.06 250.297 339.695C233.381 316.037 225.024 308.535 209.566 305.132C197.243 302.419 186.027 318.405 182.187 326.752C185.645 326.424 194.501 326.88 207.742 334.465Z" fill="black" fill-opacity="0.26"/>
<path id="ear_outer_shadow" d="M207.271 503.826C202.208 502.235 180.951 480.519 171.093 466.597C193.524 473.142 213.25 471.878 213.25 471.878L218.983 476.35C214.542 485.392 208.526 500.553 207.271 503.826Z" fill="black" fill-opacity="0.26"/>
</g>
<path id="ear_hair" d="M303.602 408.014C303.602 408.014 262.249 374.499 226.564 362.8C227.257 370.309 235.473 392.47 251.466 400.15C237.826 395.127 228.222 393.397 212.237 392.102C217.48 400.368 230.93 417.446 242.783 419.64C254.636 421.834 221.33 417.903 210.583 422.045C228.123 429.25 266.757 432.847 266.757 432.847L303.602 408.014Z" fill="black"/>
<g id="ear_L">
<path id="ear_outer_L" d="M937.539 440.824C938.261 540.428 831.902 586.366 815.678 592.328L746.852 420.483C757.755 397.903 771.107 360.572 807.162 340.473C876.412 305.341 936.818 341.22 937.539 440.824Z" fill="#C8C8C8" stroke="black" stroke-width="8"/>
<path id="ear_inner_L" d="M905.046 442.335C901.616 503.583 843.559 544.523 811.411 548.085L784.35 460.019C791.419 445.378 815.038 410.311 835.758 393.371C886.191 352.137 907.857 392.133 905.046 442.335Z" fill="#465560" stroke="black" stroke-width="6"/>
<path id="highlight_2" opacity="0.55" d="M746.852 420.483C757.755 397.903 774.818 366.729 810.873 346.631C844.139 329.754 872.345 330.254 893.137 345.164C937.642 378.759 937.149 453.82 915.719 501.297C931.183 436.933 931.308 375.566 879.445 349.148C825.547 321.693 746.852 420.483 746.852 420.483Z" fill="#EBECED"/>
<path id="ear_inner_shadow_2" d="M871.2 408.114C852.634 414.464 814.386 470.387 790.797 493.011C773.438 509.66 815.114 544.388 815.114 544.388C815.114 544.388 788.6 560.761 768.948 531.688C741.385 490.914 766.249 468.549 766.249 468.549C777.982 457.684 824.467 407.527 837.343 397.321C846.73 389.881 864.773 377.92 880.09 381.911C892.301 385.093 899.541 404.567 899.169 413.748C896.238 411.885 885.638 403.176 871.2 408.114Z" fill="black" fill-opacity="0.26"/>
<path id="ear_outer_shadow_2" d="M831.75 578.331C836.982 579.212 866.336 558.731 879.519 547.486C854.734 547.034 844.594 540.262 844.594 540.262L826.99 548.391C826.839 558.463 832.118 574.845 831.75 578.331Z" fill="black" fill-opacity="0.26"/>
</g>
<path id="ear_hair_2" d="M843.145 434.845C813.213 446.134 784.375 443.517 784.375 443.517L781.513 484.073C781.513 484.073 824.171 499.674 839.593 494.922C819.371 488.38 813.304 487.774 810.036 483.81C821.983 485.416 840.081 473.373 847.637 467.151C829.326 465.816 825.615 467.8 803.224 462.805C822.808 463.557 839.89 442.364 843.145 434.845Z" fill="black"/>
<path id="head" d="M853.365 740.469C842.146 716.77 831.707 672.799 832.148 630.305C829.598 577.862 818.755 523.426 799.918 479.031C758.59 381.629 655.296 314.309 518.115 304.474C380.934 294.639 293.654 379.729 257.797 422.808C218.685 469.527 204.659 530.566 188.131 577.299C173.179 619.574 156.563 642.21 149.678 651.534L165.468 651.57C165.468 651.57 153.595 678.587 154.398 686.337C156.86 686.386 163.48 685.345 168.701 685.714C169.492 701.671 211.567 753.196 250.567 781.923C289.568 810.65 339.09 834.715 370.523 848.904C370.523 848.904 420.146 868.536 457.59 873.303C500.155 878.722 548.675 876.221 548.675 876.221C553.897 876.739 590.673 871.843 682.376 854.869C744.908 843.294 805.714 802.006 827.821 766.315L842.607 771.527L839.386 738.475C843.157 739.437 848.244 739.768 853.365 740.469Z" fill="#C8C8C8" stroke="black" stroke-width="8"/>
<path id="head_shadow" d="M681.075 849.632C747.076 838.177 818.783 783.531 820.682 763.11C763.74 801.24 667.609 844.345 560.621 858.362C548.701 859.923 509.164 863 459.994 856.256C416.052 850.228 373.311 828.658 359.788 824.501C296.428 805.026 221.498 754.308 174.293 684.824C178.389 705.421 216.051 749.814 255.051 778.54C294.052 807.267 341.94 829.795 373.373 843.984C373.373 843.984 425.201 862.652 451.126 866.332C486.884 871.409 548.379 870.937 548.379 870.937C553.601 871.454 589.188 865.579 681.075 849.632Z" fill="#B0B0B1"/>
<path id="head_shadow_L" d="M845.19 732.108C837.082 713.66 825.775 685.421 824.899 642.934C823.776 588.545 817.59 535.188 798.752 490.793C807.79 517.979 813.957 603.616 811.971 632.712C810.237 658.116 826.264 730.293 835.096 764.504C838.207 766.301 836.967 762.723 836.967 762.723C836.967 762.723 828.828 728.884 830.869 725.218C834.64 726.18 840.069 731.407 845.19 732.108Z" fill="#EBECED"/>
<path id="head_shadow_R" d="M161.769 673.638C159.959 677.489 158.1 681.446 161.717 681.057C166.315 678.353 185.432 647.431 181.351 644.049C180.206 643.1 178.071 639.423 173.825 639.637C190.137 617.43 200.341 584.958 211.209 548.438C214.307 537.253 216.842 521.818 229.826 478.371C208.884 524.372 206.962 542.308 190.434 589.041C175.482 631.317 165.891 637.516 159.006 646.84C159.006 646.84 171.784 643.113 174.351 644.962C176.763 646.699 165.84 664.429 161.889 673.382L161.769 673.638Z" fill="#EBECE8"/>
<g id="spots">
<path id="spot" d="M771.359 687.437C781.17 700.337 776.288 714.172 760.435 727.724C741.199 744.169 705.259 741.067 702.179 729.747C698.568 716.478 721.444 713.534 731.913 700C744.674 683.504 757.402 669.084 771.359 687.437Z" fill="#485760"/>
<path id="spot_2" d="M219.211 620.567C204.61 627.602 208.938 652.851 216.039 661.593C233.036 682.52 259.049 687.107 266.935 678.423C276.18 668.242 258.915 659.987 250.761 647.743C239.199 630.385 239.982 610.558 219.211 620.567Z" fill="#485760"/>
<path id="spot_3" d="M806.532 743.987C814.536 752.631 801.705 778.736 781.306 791.06C757.034 805.724 727.839 804.023 724.148 792.003C719.56 777.062 747.231 775.792 763.024 769.21C780.738 761.827 793.875 730.319 806.532 743.987Z" fill="#485760"/>
<path id="spot_4" d="M190.907 673.373C179.85 677.437 187.287 708.315 200.877 723.517C219.852 744.743 243.91 743.14 248.867 737.965C259.679 726.678 238.636 717.316 223.764 708.855C204.394 697.835 208.392 666.947 190.907 673.373Z" fill="#485760"/>
<path id="spot_5" d="M274.633 738.906C268.189 748.768 276.644 753.417 287.194 758.92C289.85 760.305 300.002 760.411 304.274 757.794C310.405 754.038 308.542 747.8 305.654 745.052C301.281 740.891 279.064 732.126 274.633 738.906Z" fill="#485760"/>
<path id="spot_6" d="M676.996 790.72C682.423 800.325 669.081 805.608 660.105 806.847C647.216 808.627 639.308 804.928 636.691 800.656C632.935 794.524 641.285 787.967 645.106 786.831C650.892 785.111 673.012 783.669 676.996 790.72Z" fill="#485760"/>
<path id="spot_7" d="M305.615 683.341C294.253 680.225 292.62 698.557 298.764 704.788C308.185 714.342 326.573 716.515 331.21 714.621C357.381 703.928 352.021 695.849 349.023 692.072C345.27 687.344 330.626 690.199 305.615 683.341Z" fill="#485760"/>
<path id="spot_8" d="M647.366 726.513C658.902 728.899 651.974 746.814 644.183 750.798C632.423 756.814 608.799 750.849 605.23 747.334C584.259 726.676 598.095 718.287 602.699 719.719C630.424 728.336 621.97 721.26 647.366 726.513Z" fill="#485760"/>
<path id="spot_9" d="M761.378 510.959C773.471 507.504 783.129 520.425 786.189 539.061C790.783 567.044 780.608 581.472 772.55 578.181C767.334 576.051 764.764 563.541 759.756 547.18C757.305 539.176 743.467 516.077 761.378 510.959Z" fill="#485760"/>
<path id="spot_10" d="M795.536 628.862C807.629 625.407 813.182 647.546 813.264 656.57C813.422 673.699 809.325 692.618 801.267 689.327C796.051 687.197 790.997 682.049 786.539 665.53C785.943 663.324 777.624 633.98 795.536 628.862Z" fill="#485760"/>
<path id="spot_11" d="M420.943 497.242C416.26 494.511 410.843 483.154 410.272 474.873C409.666 466.091 416.049 454.897 424.456 463.923C430.475 470.385 434.123 485.132 431.054 493.283C428.991 498.761 425.617 499.969 420.943 497.242Z" fill="#485760"/>
<path id="spot_12" d="M422.545 443.637C417.863 440.906 412.792 429.961 413.258 421.673C413.705 413.711 419.715 402.279 428.121 411.305C434.14 417.768 435.4 431.26 432.331 439.411C430.268 444.889 427.22 446.364 422.545 443.637Z" fill="#485760"/>
<path id="spot_13" d="M449.056 469.705C444.86 463.798 445.101 449.07 447.667 441.176C450.266 433.178 457.992 425.298 466.397 434.326C472.417 440.788 468.564 456.782 465.495 464.933C460.866 476.246 453.483 475.936 449.056 469.705Z" fill="#485760"/>
<path id="spot_14" d="M239.066 513.917C227.363 504.071 242.703 471.161 250.751 463.086C265.682 448.107 276.243 459.872 274.634 466.89C271.006 482.724 263.543 483.042 258.419 494.122C254.362 502.893 247.494 521.008 239.066 513.917Z" fill="#485760"/>
<path id="spot_15" d="M197.237 609.805C194.756 607.673 194.059 604.809 194.659 599.243C196.037 586.464 201.488 569.776 206.027 564.449C208.817 561.173 214.001 559.46 216.825 560.879C221.203 563.078 223.1 569.634 221.856 578.266C220.093 590.494 210.089 608.131 203.512 610.6C200.509 611.727 199.291 611.572 197.237 609.805Z" fill="#485760"/>
<path id="spot_16" d="M514.719 527.81C514.798 524.463 517.153 518.536 519.741 516.627C524.667 512.994 530.539 517.906 529.909 525.13C529.585 528.855 526.627 534.461 523.814 536.683C517.812 541.422 514.61 532.425 514.719 527.81Z" fill="#485760"/>
<path id="spot_17" d="M531.669 473.72C525.475 460.924 533.125 445.435 538.213 441.679C545.624 436.21 556.165 441.912 555.535 449.136C555.21 452.862 551.494 467.677 547.409 474.041C545.302 477.325 537.174 485.093 531.669 473.72Z" fill="#485760"/>
<path id="spot_18" d="M556.235 507.285C552.161 498.55 563.958 482.389 570.831 478.817C579.004 474.569 584.743 478.9 584.114 486.124C583.789 489.849 580.165 499.263 572.573 505.829C569.622 508.38 561.577 518.737 556.235 507.285Z" fill="#485760"/>
<path id="spot_19" d="M451.232 529.479C448.74 527.648 447.075 522.106 447.624 517.464C448.625 509.01 456.193 505.658 459.697 512.115C461.988 516.335 461.076 524.863 457.947 528.511C455.784 531.033 453.746 531.326 451.232 529.479Z" fill="#485760"/>
<path id="eye_spot_R" d="M378.758 671.071C383.226 669.959 393.322 665.983 395.914 661.759C405.978 631.836 411.937 607.035 416.921 568.344C420.422 534.328 412.136 490.654 393.013 465.934C387.673 459.715 383.186 491.444 355.117 492.046C337.796 527.456 324.299 582.938 256.286 554.904C247.56 555.324 243.639 562.67 241.849 570.122C235.927 594.768 241.437 618.447 257.978 637.602C277.296 664.883 330.55 681.768 378.758 671.071Z" fill="#E0E1E1"/>
<path id="eye_spot_L" d="M577.453 689.189C571.034 685.624 566.394 683.441 564.973 683.319C562.251 683.084 561.801 682.317 561.281 677.016C555.737 646.216 549.253 617.806 558.064 573.885C561.086 556.976 581.08 499.253 609.345 485.919C616.929 482.805 619.766 508.928 644.498 522.215C643.842 561.629 670.998 611.625 744.323 617.55C748.255 624.222 749.691 633.686 747.901 641.138C741.979 665.783 718.945 689.961 695.508 699.511C655.577 715.78 614.065 709.529 577.453 689.189Z" fill="#E0E1E1"/>
<path id="spot_20" d="M616.442 499.097C608.152 494.749 606.342 485.009 605.771 476.728C605.165 467.946 611.548 456.752 619.955 465.778C625.974 472.24 632.305 486.709 628.273 496.669C626.076 502.095 621.234 501.611 616.442 499.097Z" fill="#485760"/>
<path id="spot_21" d="M362.866 470.828C352.146 452.899 353.414 431.924 362.277 419.111C374.308 401.717 384.47 406.109 392.876 415.135C398.895 421.598 401.22 444.253 390.402 467.563C385.257 478.65 370.774 484.056 362.866 470.828Z" fill="#485760"/>
</g>
<g id="cap">
<path id="cap_top" d="M588.06 136.379C597.936 138.752 606.087 143.624 611.317 149.433C616.557 155.253 618.674 161.752 617.257 167.653C615.839 173.553 611 178.38 603.688 181.184C596.391 183.983 586.916 184.621 577.04 182.248C567.164 179.875 559.012 175.003 553.783 169.194C548.543 163.374 546.425 156.876 547.842 150.975C549.26 145.074 554.099 140.247 561.412 137.442C568.709 134.644 578.184 134.006 588.06 136.379Z" fill="#5D7A9C" stroke="black" stroke-width="6"/>
<path id="cap_side" d="M796.343 290.273C757.84 238.734 662.537 170.368 586.963 156.645C746.855 242.864 713.706 420.607 721.658 428.575C723.299 430.274 749.662 448.536 760.338 457.624C778.575 471.696 797.073 473.604 812.943 475.809C823.504 417.775 824.461 327.912 796.343 290.273Z" fill="#32455D" stroke="black" stroke-width="6"/>
<path id="cap_front" d="M342.345 212.383C312.871 235.624 271.555 359.062 271.555 359.062C286.985 351.857 328.882 337.296 368.378 331.741C407.169 326.286 497.164 325.88 576.817 356.403C640.469 378.53 698.069 411.089 734.461 437.395C744.303 399.639 749.991 332.542 742.683 299.183C733.571 257.586 667.279 191.803 618.318 164.966C607.634 161.321 597.12 158.49 586.963 156.645C499.08 140.687 379.596 183.01 342.345 212.383Z" fill="#32455D" stroke="black" stroke-width="6"/>
<path id="cap_shade" d="M236.814 446.225C296.6 358.3 394.02 388.002 435.034 395.587C551.48 417.121 625.319 503.575 662.853 506.703C693.648 509.269 745.562 474.221 761.375 458.69C647.228 377.302 600.518 358.508 497.737 335.747C369.261 307.296 270.007 358.354 237.319 377.079L237.185 377.156C204.543 395.854 172.881 413.991 169.923 443.041C167.554 466.312 213.53 454.86 236.814 446.225Z" fill="#32455D" stroke="black" stroke-width="6"/>
<path id="shade_inner" d="M169.923 443.041C167.554 466.312 213.53 454.86 236.814 446.225C296.6 358.3 394.02 388.002 435.034 395.587C551.48 417.121 625.319 503.575 662.853 506.703C693.648 509.269 745.562 474.221 761.374 458.69L750.725 451.14C731.858 463.58 689.708 481.205 659.306 477.176C627.708 472.987 596.65 431.74 517.213 400.877C420.527 363.313 338.26 366.733 292.46 373.553C248.414 380.112 217.477 392.082 194.862 404.169C182.775 414.385 171.601 426.567 169.923 443.041Z" fill="#253345" stroke="black" stroke-width="6"/>
<path id="cap_shade_inner_line" d="M324.187 386.802C263.738 389.772 186.804 420.682 188.391 438.07" stroke="black" stroke-width="6" stroke-linecap="round"/>
<path id="cap_highlight_R" d="M342.108 218.452C317.121 238.115 278.982 351.877 278.982 351.877L290.938 347.095C302.542 315.662 334.406 235.514 352.869 222.389C386.984 198.137 489.985 167.077 545.909 162.953C570.96 161.767 625.773 176.156 661.922 201.019C657.86 196.475 636.18 179.474 616.545 168.811C605.861 165.166 594.819 162.302 584.662 160.457C496.779 144.499 379.387 189.116 342.108 218.452Z" fill="#587295"/>
<path id="54" d="M443.633 300.478C443.882 299.44 453.032 278.613 456.512 271.159L458.218 267.506L463.884 268.41C466.999 268.906 471.284 269.727 473.404 270.234L477.257 271.155L477.131 273.638C476.981 276.588 478.801 280.519 481.385 282.828C482.845 284.133 484.895 284.865 490.875 286.221C503.242 289.021 511.567 288.817 517.938 285.557C522.217 283.367 524.138 281.201 525.253 277.311C527.06 271.005 523.816 268.485 503.554 260.461C495.167 257.14 486.586 253.36 484.488 252.062C473.698 245.385 471.128 240.182 473.579 229.982C476.155 219.258 481.837 211.317 490.988 205.65C501.72 199.004 512.495 197.855 534.75 200.975C542.632 202.081 553.494 203.575 558.887 204.292C564.279 205.01 571.934 206.159 575.898 206.846L583.105 208.096L582.2 209.831C580.629 212.838 575.86 223.253 572.898 230.145L570.048 236.78L564.052 235.798C560.755 235.258 556.395 234.627 554.364 234.397C551.055 234.02 550.702 233.842 550.966 232.68C551.663 229.622 550.045 225.025 547.465 222.731C545.129 220.655 544.025 220.236 535.658 218.255C524.49 215.612 516.934 215.308 512.097 217.307C501.888 221.526 499.179 230.141 506.519 235.039C507.971 236.009 515.275 239.099 522.747 241.909C553.471 253.455 559.156 258.95 555.583 273.636C552.924 284.57 547.363 291.938 537.055 298.191C523.561 306.375 508.328 307.532 478.711 302.62C470.523 301.262 468.989 301.195 467.82 302.141C466.738 303.014 464.485 303.075 456.896 302.428C451.638 301.981 446.445 301.599 445.355 301.583C443.849 301.559 443.437 301.295 443.633 300.478Z" fill="#FBFAF8" stroke="#FBFAF8"/>
</g>
<g id="nose_and_mouth">
<path id="chin" d="M580.198 790.419C601.505 871.115 505.583 898.535 454.774 886.67C412.532 886.09 338.254 832.574 350.965 779.672C359.189 745.439 380.688 692.482 415.665 685.319C429.536 682.478 434.239 698.878 463.527 701.346C493.452 699.278 499.343 692.214 513.586 695.746C550.64 712.654 570.771 754.716 580.198 790.419Z" fill="#E0DFDF"/>
<path id="shadow" d="M564.737 857.948C532.596 892.726 478.783 894.569 453.922 889.055C421.816 885.016 375.676 862.905 360.955 826.881C380.911 843.03 402.042 863.138 457.888 872.551C494.813 878.774 544.142 863.332 564.737 857.948Z" fill="#B0B0B1"/>
<path id="chin_2" d="M563.643 859.07C533.931 900.934 477.226 899.887 449.072 893.123C419.32 888.426 368.048 863.157 360.956 826.881C374.707 843.811 398.159 875.164 453.999 884.612C505.62 893.345 530.677 876.306 563.643 859.07Z" fill="black"/>
<path id="mouth" d="M485.904 812.729C491.394 824.398 490.914 830.548 480.313 836.122C470.703 841.176 457.688 839.434 454.921 826.839C452.154 814.244 457.174 791.717 463.059 787.386C469.347 782.759 478.292 796.548 485.904 812.729Z" fill="#8B3033" stroke="black" stroke-width="8"/>
<g id="nose">
<path id="Vector 1" d="M400.767 694.506C398.863 684.284 410.608 664.414 416.824 655.732C416.824 655.732 407.13 680.913 407.987 688.591C409.602 688.066 412.205 681.947 425.707 686.654C437.954 690.924 440.694 700.455 465.023 701.564C482.147 702.344 495.518 696.008 505.918 695.308C517.666 694.517 521.965 699.728 523.597 702.701C528.25 698.068 527.094 686.598 528.522 672.904C529.793 678.939 533.932 705.9 526.227 712.989C519.082 719.562 478.62 754.255 458.854 751.248C439.931 748.37 402.755 705.186 400.767 694.506Z" fill="black" stroke="black"/>
<path id="Vector 2" d="M501.752 701.125C497.416 702.752 472.884 707.301 461.004 707C455.621 705.9 441.927 701.883 430.213 694.613C415.571 685.525 410.419 687.652 407.385 694.001C404.351 700.351 411.838 706.541 418.144 705.826C432.077 704.245 441.986 723.259 442.09 726.672C442.211 730.659 441.1 732.852 441.947 735.608C442.624 737.813 450.288 742.505 456.773 743.928C465.386 745.818 470.761 743.246 478.984 739.865C479.832 736.82 479.941 735.943 481.241 730.38C483.638 720.134 496.508 711.957 504.312 714.62C511.076 716.929 520.746 716.248 520.77 706.971C520.795 697.694 506.089 699.498 501.752 701.125Z" fill="#C2A4A3" stroke="black"/>
<path id="Vector 4" d="M464.724 767.404C460.639 748.658 460.333 718.66 460.333 718.66C460.333 718.66 455.935 746.983 456.233 766.027C456.462 780.715 458.413 789.234 458.413 789.234L472.102 786.21C472.102 786.21 467.703 781.074 464.724 767.404Z" fill="black" stroke="black"/>
<path id="Vector 3" d="M474.552 630.14C456.067 628.347 442.592 635.229 438.164 638.894C446.052 637.558 459.536 633.534 473.2 634.78C484.306 635.794 500.627 642 508.653 645.663C504.987 641.235 493.036 631.933 474.552 630.14Z" fill="black"/>
</g>
<g id="wiskers">
<path id="Vector 5" d="M682.891 816.236C642.706 790.239 567.214 768.232 534.491 760.479L533.785 764.65C575.338 774.495 612.608 785.447 682.891 816.236Z" fill="black"/>
<path id="Vector 6" d="M716.811 779.909C664.609 756.104 579.362 749.299 545.645 745.862L544.939 750.034C585.962 755.309 641.253 757.775 716.811 779.909Z" fill="black"/>
<path id="Vector 7" d="M720.048 732.143C659.782 712.594 572.548 726.369 538.936 736.086L541.058 740.056C582.968 732.054 638.244 720.186 720.048 732.143Z" fill="black"/>
<path id="Vector 8" d="M248.632 764.847C291.049 751.529 363.383 752.196 394.248 754.195L393.726 758.392C354.531 755.853 318.797 755.607 248.632 764.847Z" fill="black"/>
<path id="Vector 9" d="M235.555 723.209C284.584 714.397 356.826 730.873 385.581 736.673L385.148 740.88C349.895 734.876 303.514 722.314 235.555 723.209Z" fill="black"/>
<path id="Vector 10" d="M219.754 675.532C285.462 673.478 368.592 710.927 399.367 729.593L396.118 732.818C356.575 713.497 304.793 686.751 219.754 675.532Z" fill="black"/>
</g>
</g>
<path id="cap_shade_highlight" d="M314.344 346.315C338.109 339.557 388.94 331.209 428.537 331.631C417.55 333.638 391.18 339.32 375.775 342.892C360.371 346.464 318.635 360.86 299.574 368.301C276.228 371.526 258.362 374.973 237.805 381.504C254.39 372.961 280.842 355.842 314.344 346.315Z" fill="#587295"/>
<path id="cap_shadow_L" d="M788.639 425.379C777.688 448.652 755.624 445.947 746.162 441.44C751.355 446.161 763.245 454.617 773.429 460.804C784.014 467.234 802.035 469.718 809.481 471.258C809.481 471.258 813.416 453.375 815.029 421.915C818.481 354.585 807.871 327.362 803.585 322.897C807.773 348.84 802.328 396.288 788.639 425.379Z" fill="black" fill-opacity="0.26"/>
<path id="Vector 11" d="M693.743 218.923C690.425 215.078 670.376 196.478 657.247 186.034C707.217 212.486 737.439 235.405 766.573 263.855C792.209 288.888 801.801 300.024 808.859 330.991C791.101 301.422 778.12 289.159 764.601 275.694C744.225 255.4 698.052 221.946 693.743 218.923Z" fill="#587295"/>
<path id="cap_head_shadow" d="M793.44 476.454L800.893 494.645C787.434 492.024 768.978 487.896 756.575 482.159C715.615 516.88 702.791 524.365 666.201 527.518C616.802 531.775 498.667 440.867 382.07 438.58C302.652 437.022 244.606 456.902 228.789 480.186C228.765 480.221 228.741 480.257 228.717 480.292C228.741 480.257 228.765 480.221 228.789 480.186C240.456 462.861 254.959 404.582 318.597 393.01C356.577 386.103 414.158 391.277 467.547 407.731C510.086 420.84 546.244 441.326 571.459 458.01C607.318 481.739 638.567 507.566 662.295 510.816C687.9 514.323 739.025 483.55 761.995 464.058C775.076 472.714 793.44 476.454 793.44 476.454Z" fill="black" fill-opacity="0.16"/>
<g id="eye_R">
<path id="outer" d="M251.335 566.692C249.299 609.169 269.667 631.378 289.523 644.702C341.215 679.39 381.443 645.838 391.892 664.891C425.906 564.313 390.535 490.128 334.325 487.73C297.139 485.362 254.543 514.433 251.335 566.692Z" fill="#020201"/>
<path id="white" d="M266.058 570.033C261.341 608.393 271.15 626.293 300.63 643.374C310.665 649.189 363.901 666.047 384.911 645.364C413.188 617.526 406.167 499.8 326.573 506.313C296.368 508.785 269.93 538.543 266.058 570.033Z" fill="white"/>
<mask id="mask0_123_2" style="mask-type:alpha" maskUnits="userSpaceOnUse" x="264" y="506" width="137" height="150">
<path id="white_mask" d="M266.058 570.033C261.341 608.393 271.15 626.293 300.63 643.374C310.665 649.189 363.901 666.047 384.911 645.364C413.188 617.526 406.167 499.8 326.573 506.313C296.368 508.785 269.93 538.543 266.058 570.033Z" fill="white"/>
</mask>
<g mask="url(#mask0_123_2)">
<g id="eye_ball">
<ellipse id="cyan" cx="67.7841" cy="69.8848" rx="67.7841" ry="69.8848" transform="matrix(0.97233 0.233612 0.233612 -0.97233 268.328 633.593)" fill="#1097AF"/>
<path id="cyan_2" d="M418.701 579.082C417.207 612.239 390.147 648.302 342.669 647.398C315.115 646.874 284.953 609.97 291.077 592.341C313.542 573.688 362.115 568.362 389.705 570.98C397.67 571.736 419.073 570.819 418.701 579.082Z" fill="#34DCED"/>
<ellipse id="black" cx="50.8381" cy="53.5713" rx="50.8381" ry="53.5713" transform="matrix(0.97233 0.233612 0.233612 -0.97233 292.359 621.553)" fill="black"/>
<ellipse id="highlight_upper" cx="8.30902" cy="9.18368" rx="8.30902" ry="9.18368" transform="matrix(0.97233 0.233612 0.233612 -0.97233 358.824 622.904)" fill="#F0EFEF"/>
<ellipse id="highlight_lower" cx="15.7434" cy="15.7164" rx="15.7434" ry="15.7164" transform="matrix(0.97233 0.233612 0.233612 -0.97233 308.537 562.642)" fill="#F0EFEF"/>
</g>
<path id="eye_ball_shadow" d="M318.065 507.078C353.314 496.313 380.625 525.133 389.331 541.258C389.331 541.258 395.34 552.5 397.889 569.081C390.601 567.693 388.569 570.108 373.914 558.602C320.673 516.806 282.569 537.503 270.977 552.016C274.822 542.053 281.857 518.137 318.065 507.078Z" fill="black" fill-opacity="0.28"/>
</g>
</g>
<g id="eye_L">
<path id="outer_2" d="M737.646 624.86C728.043 664.827 698.849 686.218 674.547 693.713C627.733 708.152 581.803 667.685 565.548 684.114C556.409 568.473 613.292 509.898 671.472 523.876C712.29 529.938 749.64 570.483 737.646 624.86Z" fill="#020201"/>
<path id="white_2" d="M724.389 624.35C718.075 664.967 697.382 678.162 662.244 687.012C650.282 690.024 595.668 687.56 582.693 668.434C547.128 616.009 603.735 527.401 664.303 540.348C704.658 548.974 730.867 582.68 724.389 624.35Z" fill="white"/>
<mask id="mask1_123_2" style="mask-type:alpha" maskUnits="userSpaceOnUse" x="571" y="539" width="155" height="150">
<path id="white_mask_2" d="M724.389 624.35C718.075 664.967 697.382 678.162 662.244 687.012C650.282 690.024 595.668 687.56 582.693 668.434C547.128 616.009 603.735 527.401 664.303 540.348C704.658 548.974 730.867 582.68 724.389 624.35Z" fill="white"/>
</mask>
<g mask="url(#mask1_123_2)">
<g id="eye_ball_2">
<ellipse id="cyan_3" cx="633.077" cy="611.098" rx="70.0033" ry="70.0034" transform="rotate(13.5098 633.077 611.098)" fill="#1097AF"/>
<path id="cyan_4" d="M694.741 624.707C693.247 657.864 655.614 685.359 621.335 677.123C594.539 670.685 572.291 646.601 581.046 626.515C601.501 611.066 653.857 609.693 681.447 612.311C689.412 613.067 695.113 616.443 694.741 624.707Z" fill="#34DCED"/>
<ellipse id="black_2" cx="629.836" cy="609.477" rx="53.702" ry="53.7021" transform="rotate(13.5098 629.836 609.477)" fill="black"/>
<ellipse id="highlight_upper_2" cx="662.723" cy="586.552" rx="15.5807" ry="15.5807" transform="rotate(13.5098 662.723 586.552)" fill="#F0EFEF"/>
<ellipse id="highlight_lower_2" cx="608.185" cy="640.705" rx="8.99726" ry="8.99726" transform="rotate(13.5098 608.185 640.705)" fill="#F0EFEF"/>
</g>
<path id="eye_ball_shadow_2" d="M629.93 570.412C602.027 572.816 585.481 583.953 569.827 601.721C569.827 601.721 551.903 584.994 547.77 581.517C553.003 566.627 628.436 537.303 652.849 538.845C690.419 541.219 723.708 566.777 725.169 607.473C702.727 568.941 652.859 568.436 629.93 570.412Z" fill="black" fill-opacity="0.28"/>
</g>
</g>
</g>
<g id="?">
<circle id="Ellipse 2" cx="797.04" cy="361.754" r="14.684" fill="#EEEEEE" stroke="black" stroke-width="4"/>
<circle id="Ellipse 3" cx="756.386" cy="396.86" r="10.3864" fill="#EEEEEE" stroke="black" stroke-width="3"/>
<circle id="Ellipse 1" cx="830.466" cy="301.335" r="24.4178" fill="#EEEEEE" stroke="black" stroke-width="6"/>
<path id="Vector 12" d="M929.662 80.0485C885.71 66.6187 866.583 94.8009 862.513 110.571C855.9 109.553 838.706 105.687 822.834 98.3618C802.995 89.2051 827.413 38.8434 864.039 22.0562C900.666 5.26895 960.184 34.2651 981.55 51.0523C1002.92 67.8396 1030.39 107.518 1004.44 154.828C978.498 202.137 940.345 203.664 912.875 203.664C885.405 203.664 877.774 234.186 871.67 247.921C865.565 261.656 836.569 250.973 828.939 244.869C821.308 238.764 835.043 214.346 848.778 186.876C862.513 159.406 879.301 157.88 906.771 162.459C934.241 167.037 984.602 96.8357 929.662 80.0485Z" fill="#EEEEEE" stroke="black" stroke-width="6"/>
</g>
</g>
</svg>
