<svg width="1024" height="1024" viewBox="0 0 1024 1024" fill="none" xmlns="http://www.w3.org/2000/svg">
<rect width="1024" height="1024" fill="#1E1E1E"/>
<g id="success">
<g id="leo">
<g id="ear_R">
<path id="ear_outer_R" d="M111.035 442.511C112.695 542.104 215.974 583.879 232.335 589.452L295.76 416.436C284.32 394.123 272.805 359.18 236.28 339.949C166.211 306.482 109.376 342.919 111.035 442.511Z" fill="#C8C8C8" stroke="black" stroke-width="8"/>
<path id="ear_inner_R" d="M142.593 440.538C146.538 494.778 202.045 542.751 234.268 545.544L259.218 456.856C251.8 442.388 231.759 410.629 210.639 394.188C159.236 354.172 138.946 390.389 142.593 440.538Z" fill="#465560" stroke="black" stroke-width="6"/>
<path id="highlight" opacity="0.55" d="M291.717 382.565C272.686 366.237 232.707 336.553 187.996 333.694C165.639 331.354 139.315 349.455 126.387 379.965C119.888 395.303 113.909 433.256 118.848 455.872C122.747 436.115 117.808 382.565 154.982 353.19C180.103 333.339 211.131 353.97 291.717 382.565Z" fill="#EBECED"/>
<path id="ear_inner_shadow" d="M174.712 410.452C189.358 414.733 228.321 470.821 245.972 498.33C258.961 518.573 187.608 517.996 187.608 517.996C187.608 517.996 233.89 558.042 259.79 534.365C296.115 501.159 269.223 472.527 269.223 472.527C260.353 459.221 229.726 416.359 217.311 405.596C195.337 386.545 185.459 381.203 169.633 381.505C157.017 381.746 149.846 399.909 148.062 408.923C151.348 407.796 160.066 406.171 174.712 410.452Z" fill="black" fill-opacity="0.26"/>
<path id="ear_outer_shadow" d="M213.818 575.238C208.524 574.873 182.782 558.724 169.944 547.491C193.283 548.614 212.168 542.777 212.168 542.777L218.788 545.786C216.581 555.615 214.275 571.763 213.818 575.238Z" fill="black" fill-opacity="0.26"/>
</g>
<path id="ear_hair" d="M285.101 459.573C285.101 459.573 237.063 436.645 199.632 433.607C202.06 440.746 215.226 460.375 232.571 464.105C218.134 462.408 208.392 462.97 192.547 465.445C199.576 472.257 216.643 485.721 228.681 485.085C240.719 484.449 207.416 488.408 197.934 494.946C216.672 497.854 255.077 492.326 255.077 492.326L285.101 459.573Z" fill="black"/>
<g id="ear_L">
<path id="ear_outer_L" d="M909.131 343.393C933.101 440.073 840.417 509.586 826.035 519.174L718.968 368.162C724.295 343.659 728.556 304.242 758.918 276.277C818.045 225.94 885.161 246.714 909.131 343.393Z" fill="#C8C8C8" stroke="black" stroke-width="8"/>
<path id="ear_inner_L" d="M877.89 352.453C888.864 412.807 841.977 466.178 811.551 477.151L764.665 397.844C768.118 381.956 782.892 342.343 799.081 321.03C838.486 269.156 868.896 302.983 877.89 352.453Z" fill="#465560" stroke="black" stroke-width="6"/>
<path id="highlight_2" opacity="0.55" d="M718.968 368.162C724.295 343.66 733.603 309.362 763.966 281.397C792.368 257.216 819.911 251.113 843.611 260.753C894.732 283.021 911.789 356.121 902.042 407.29C902.042 341.095 887.828 281.397 831.229 267.825C772.407 253.721 718.968 368.162 718.968 368.162Z" fill="#EBECED"/>
<path id="ear_inner_shadow_2" d="M836.987 327.087C820.419 337.598 796.293 400.909 778.642 428.418C765.653 448.661 814.288 472.692 814.288 472.692C814.288 472.692 792.333 494.806 766.432 471.129C730.108 437.922 749.059 410.367 749.059 410.367C757.929 397.061 791.41 337.433 801.546 324.501C808.935 315.074 823.685 299.229 839.51 299.532C852.126 299.773 863.715 317.017 865.499 326.03C862.213 324.903 849.872 318.912 836.987 327.087Z" fill="black" fill-opacity="0.26"/>
<path id="ear_outer_shadow_2" d="M838.393 501.809C843.687 501.444 867.443 474.672 877.635 460.658C853.429 466.009 841.988 461.793 841.988 461.793L826.77 473.81C828.977 483.639 837.936 498.334 838.393 501.809Z" fill="black" fill-opacity="0.26"/>
</g>
<path id="ear_hair_2" d="M815.952 359.632C789.485 377.601 760.833 381.794 760.833 381.794L767.525 421.895C767.525 421.895 812.648 427.1 826.533 418.876C805.342 417.24 799.302 418.067 795.198 414.977C807.189 413.747 821.974 397.81 827.867 389.995C809.751 392.975 806.606 395.77 783.668 396.144C802.885 392.301 814.543 367.703 815.952 359.632Z" fill="black"/>
<path id="head" d="M897.318 654.398C880.874 633.975 860.451 593.659 850.953 552.238C836.222 501.842 812.962 451.445 784.275 412.679C721.336 327.627 605.173 286.3 469.49 308.784C333.807 331.269 268.821 434.394 244.02 484.658C216.904 539.22 217.525 601.848 212.372 651.148C207.71 695.747 196.842 721.639 192.326 732.313L207.687 728.66C207.687 728.66 202.454 757.702 205.045 765.05C207.45 764.523 213.644 761.964 218.807 761.103C223.304 776.434 276.251 816.704 320.883 835.525C365.516 854.346 419.29 866.177 453.167 872.629C453.167 872.629 506.004 880.126 543.526 876.014C586.179 871.339 632.772 857.573 632.772 857.573C637.971 856.856 672.586 843.504 757.785 805.577C815.884 779.714 865.361 725.363 878.52 685.496L894.114 687.109L883.261 655.724C887.152 655.778 892.175 654.912 897.318 654.398Z" fill="#C8C8C8" stroke="black" stroke-width="8"/>
<path id="head_shadow" d="M755.297 800.788C816.796 774.232 873.753 704.346 870.829 684.047C824.37 734.424 740.969 798.794 640.215 837.416C628.99 841.719 591.265 853.948 541.88 858.876C497.746 863.281 451.149 852.292 437.029 851.41C370.872 847.275 286.167 815.465 224.036 758.931C232.83 778.001 279.82 812.367 324.453 831.188C369.085 850.009 420.912 860.727 454.789 867.179C454.789 867.179 509.545 873.223 535.612 870.745C571.566 867.328 631.25 852.503 631.25 852.503C636.448 851.786 669.678 837.76 755.297 800.788Z" fill="#B0B0B1"/>
<path id="head_shadow_L" d="M887.385 648.192C875.192 632.149 857.601 607.333 846.823 566.226C833.026 513.604 814.546 463.169 785.858 424.402C800.997 448.726 826.999 530.552 831.865 559.307C836.114 584.413 868.559 650.849 885.139 682.05C888.583 683.071 886.542 679.881 886.542 679.881C886.542 679.881 870.722 648.88 871.851 644.838C875.742 644.893 882.242 648.707 887.385 648.192Z" fill="#EBECED"/>
<path id="head_shadow_R" d="M209.245 750.98C208.385 755.148 207.502 759.43 210.928 758.206C214.768 754.503 226.131 719.971 221.373 717.636C220.038 716.981 217.103 713.904 213.025 715.104C223.698 689.701 226.033 655.744 228.069 617.695C228.469 606.096 227.327 590.496 229.802 545.218C220.186 594.838 222.508 612.727 217.354 662.028C212.692 706.627 204.815 714.895 200.299 725.57C200.299 725.57 211.852 718.961 214.78 720.159C217.531 721.284 211.053 741.075 209.302 750.704L209.245 750.98Z" fill="#EBECE8"/>
<g id="spots">
<path id="spot" d="M805.192 621.99C817.745 632.242 816.23 646.834 803.982 663.714C789.12 684.198 753.449 689.578 747.81 679.291C741.199 667.232 762.755 659.025 769.773 643.421C778.327 624.4 787.334 607.405 805.192 621.99Z" fill="#485760"/>
<path id="spot_2" d="M252.699 685.958C240.146 696.21 250.252 719.749 259.199 726.591C280.615 742.967 306.98 741.351 312.619 731.064C319.23 719.005 300.514 715.012 289.725 705.012C274.429 690.835 270.558 671.374 252.699 685.958Z" fill="#485760"/>
<path id="spot_3" d="M852.603 668.758C862.405 675.292 856.028 703.673 839.072 720.422C818.897 740.35 790.112 745.516 783.716 734.691C775.765 721.235 802.373 713.536 816.191 703.447C831.691 692.13 837.103 658.425 852.603 668.758Z" fill="#485760"/>
<path id="spot_4" d="M237.516 743.916C227.713 750.451 242.158 778.736 258.924 790.343C282.333 806.549 305.35 799.37 308.961 793.18C316.837 779.68 294.189 775.493 277.752 770.74C256.344 764.55 253.015 733.583 237.516 743.916Z" fill="#485760"/>
<path id="spot_5" d="M334.234 788.076C330.272 799.171 339.58 801.716 351.123 804.602C354.029 805.328 363.925 803.059 367.467 799.517C372.552 794.432 369.283 788.803 365.833 786.805C360.608 783.781 336.958 780.449 334.234 788.076Z" fill="#485760"/>
<path id="spot_6" d="M737.569 744.459C745.089 752.53 733.35 760.785 724.912 764.086C712.795 768.828 704.242 767.078 700.7 763.536C695.615 758.451 702.202 750.125 705.652 748.128C710.877 745.104 732.047 738.534 737.569 744.459Z" fill="#485760"/>
<path id="spot_7" d="M350.277 711.398C338.502 711.023 341.197 729.229 348.626 733.852C360.019 740.94 378.405 738.758 382.472 735.833C405.421 719.323 398.322 712.719 394.524 709.747C389.771 706.026 376.198 712.223 350.277 711.398Z" fill="#485760"/>
<path id="spot_8" d="M692.658 673.54C704.432 673.165 701.88 692.202 695.237 697.896C685.207 706.493 660.843 706.212 656.551 703.628C631.334 688.44 642.828 677.052 647.64 677.368C676.61 679.27 666.737 674.365 692.658 673.54Z" fill="#485760"/>
<path id="spot_9" d="M754.26 452.726C765.211 446.541 777.62 456.848 784.949 474.254C795.953 500.389 789.43 516.795 780.826 515.478C775.257 514.626 769.836 503.062 761.144 488.324C756.891 481.114 738.039 461.886 754.26 452.726Z" fill="#485760"/>
<path id="spot_10" d="M815.016 559.388C825.968 553.203 836.538 573.432 838.727 582.186C842.882 598.805 843.318 618.158 834.714 616.841C829.145 615.988 823.028 612.163 814.834 597.142C813.739 595.136 798.796 568.548 815.016 559.388Z" fill="#485760"/>
<path id="spot_11" d="M420.04 518.92C414.849 517.358 406.929 507.581 404.438 499.663C401.798 491.265 405.389 478.889 415.672 485.702C423.034 490.579 430.026 504.065 428.946 512.708C428.22 518.516 425.222 520.479 420.04 518.92Z" fill="#485760"/>
<path id="spot_12" d="M409.076 466.422C403.885 464.861 396.398 455.403 394.914 447.235C393.489 439.389 396.662 426.87 406.944 433.683C414.306 438.561 418.684 451.384 417.603 460.027C416.877 465.835 414.258 467.982 409.076 466.422Z" fill="#485760"/>
<path id="spot_13" d="M440.942 485.576C435.482 480.813 432.276 466.436 432.927 458.161C433.586 449.778 439.257 440.311 449.538 447.125C456.901 452.002 456.891 468.453 455.812 477.096C453.953 489.177 446.703 490.601 440.942 485.576Z" fill="#485760"/>
<path id="spot_14" d="M247.091 577.621C233.411 570.781 240.639 535.198 246.578 525.467C257.596 507.414 270.613 516.386 270.689 523.586C270.86 539.83 263.678 541.882 261.284 553.852C259.388 563.329 256.943 582.547 247.091 577.621Z" fill="#485760"/>
<path id="spot_15" d="M228.82 680.627C225.91 679.133 224.563 676.512 223.846 670.96C222.2 658.212 223.603 640.713 226.772 634.472C228.719 630.636 233.359 627.758 236.436 628.479C241.207 629.594 244.583 635.525 245.39 644.21C246.533 656.511 240.926 675.997 235.107 679.934C232.451 681.732 231.23 681.866 228.82 680.627Z" fill="#485760"/>
<path id="spot_16" d="M518.362 526.734C517.657 523.461 518.562 517.148 520.633 514.687C524.573 510.003 531.43 513.407 532.506 520.579C533.061 524.277 531.495 530.419 529.278 533.236C524.549 539.246 519.334 531.246 518.362 526.734Z" fill="#485760"/>
<path id="spot_17" d="M522.208 470.18C513.196 459.186 517.015 442.338 521.086 437.497C527.014 430.448 538.595 433.53 539.67 440.701C540.225 444.4 540.072 459.673 537.588 466.816C536.306 470.5 530.218 479.953 522.208 470.18Z" fill="#485760"/>
<path id="spot_18" d="M553.935 497.078C547.932 489.536 555.628 471.067 561.477 465.988C568.431 459.948 575.023 462.818 576.098 469.989C576.653 473.688 575.329 483.688 569.48 491.845C567.207 495.016 561.804 506.965 553.935 497.078Z" fill="#485760"/>
<path id="spot_19" d="M457.022 543.189C454.171 541.99 451.257 536.99 450.707 532.349C449.706 523.895 456.281 518.867 461.197 524.327C464.409 527.895 465.515 536.4 463.325 540.678C461.811 543.636 459.897 544.397 457.022 543.189Z" fill="#485760"/>
<path id="eye_spot_R" d="M414.054 682.615C418.559 683.563 432.154 686.915 433.009 678.152C435.804 646.705 436.932 627.777 432.739 588.993C428.197 555.101 409.937 514.571 385.569 495.002C378.923 490.202 381.973 522.102 354.821 529.244C346.251 567.721 346.09 624.821 273.409 613.452C265.023 615.898 262.927 623.957 262.927 631.621C262.927 656.968 271.956 664.724 292.514 679.485C305.881 691.181 331.292 678.592 355.631 678.963C377.098 679.291 394.232 678.442 414.054 682.615Z" fill="#E0E1E1"/>
<path id="eye_spot_L" d="M624.835 655.158C611.51 663.514 597.401 659.96 594.797 652.447C582.601 635.283 572.965 606.172 571.272 561.408C570.26 544.261 576.216 483.465 600.584 463.896C607.23 459.097 616.092 483.834 643.243 490.976C651.813 529.453 689.897 571.722 762.578 560.352C767.96 565.922 771.567 574.788 771.567 582.452C771.567 593.377 768.455 604.961 763.268 615.787C756.421 630.078 745.207 634.497 732.752 634.497C712.782 634.497 693.065 634.918 674.747 637.993C653.516 641.557 642.515 644.07 624.835 655.158Z" fill="#E0E1E1"/>
<path id="spot_20" d="M610.563 475.052C601.487 472.76 597.451 463.713 594.961 455.795C592.321 447.397 595.912 435.021 606.195 441.834C613.557 446.711 623.094 459.3 621.5 469.927C620.631 475.716 615.809 476.377 610.563 475.052Z" fill="#485760"/>
<path id="spot_21" d="M357.399 506.803C342.788 491.874 339.12 471.183 344.745 456.654C352.379 436.931 363.286 438.827 373.569 445.64C380.931 450.518 388.484 472.003 383.411 497.195C380.998 509.178 368.179 517.817 357.399 506.803Z" fill="#485760"/>
</g>
<g id="cap">
<path id="cap_top" d="M498.231 129C508.388 129 517.452 131.834 523.893 136.26C530.348 140.695 533.925 146.519 533.925 152.588C533.925 158.657 530.348 164.48 523.893 168.915C517.452 173.341 508.388 176.175 498.231 176.175C488.074 176.175 479.009 173.341 472.568 168.915C466.113 164.48 462.536 158.657 462.536 152.588C462.536 146.519 466.113 140.695 472.568 136.26C479.009 131.834 488.074 129 498.231 129Z" fill="#5D7A9C" stroke="black" stroke-width="6"/>
<path id="cap_side" d="M736.703 229.979C687.225 188.861 578.587 144.65 501.899 148.962C677.509 195.443 686.8 376.012 696.393 381.902C698.386 383.17 728.286 394.768 740.789 401.11C761.81 410.533 780.241 408.066 796.187 406.503C792.899 347.607 772.836 260.007 736.703 229.979Z" fill="#32455D" stroke="black" stroke-width="6"/>
<path id="cap_front" d="M277.071 260.303C253.841 289.787 242.505 419.462 242.505 419.462C255.825 408.851 293.161 384.906 330.267 370.278C366.71 355.911 454.12 334.493 538.699 345.563C605.759 352.208 669.372 370.41 710.903 387.487C711.652 348.476 701.508 281.906 686.609 251.177C668.032 212.861 588.206 164.385 534.331 149.728C523.09 148.679 512.206 148.382 501.899 148.962C412.72 153.976 306.429 223.041 277.071 260.303Z" fill="#32455D" stroke="black" stroke-width="6"/>
<path id="cap_shade" d="M229.087 512.328C266.678 412.869 368.342 418.992 409.994 416.785C528.248 410.52 620.241 477.332 657.467 471.605C688.009 466.906 730.299 420.7 742.046 401.905C612.044 349.434 562.237 342.073 456.982 343.952C325.414 346.302 240.835 419.134 213.425 444.978L213.312 445.084C185.942 470.89 159.393 495.922 163.303 524.859C166.436 548.04 208.465 526.164 229.087 512.328Z" fill="#32455D" stroke="black" stroke-width="6"/>
<path id="shade_inner" d="M163.303 524.858C166.436 548.039 208.465 526.164 229.087 512.328C266.678 412.869 368.342 418.991 409.994 416.785C528.248 410.519 620.24 477.332 657.467 471.605C688.009 466.906 730.299 420.7 742.046 401.905L729.928 397.051C714.489 413.554 677.622 440.539 647.12 443.723C615.418 447.032 575.583 414.182 491.134 402.73C388.348 388.792 309.156 411.336 266.217 428.667C224.922 445.334 197.636 464.2 178.471 481.236C169.106 493.994 161.086 508.449 163.303 524.858Z" fill="#253345" stroke="black" stroke-width="6"/>
<path id="cap_shade_inner_line" d="M300.161 434.139C242.078 451.148 174.494 499.176 180.099 515.711" stroke="black" stroke-width="6" stroke-linecap="round"/>
<path id="cap_highlight_R" d="M278.257 266.261C258.555 291.216 248.048 410.741 248.048 410.741L258.555 403.298C262.496 370.024 274.755 284.649 289.641 267.574C317.146 236.023 410.041 181.761 463.455 164.686C487.535 157.681 544.193 158.867 585.15 174.597C580.139 171.128 555.088 159.662 533.505 153.881C522.264 152.833 510.859 152.627 500.552 153.207C411.372 158.22 307.652 229.027 278.257 266.261Z" fill="#587295"/>
<path id="54" d="M396.135 322.299C396.135 321.232 400.166 298.843 401.809 290.782L402.614 286.832L408.334 286.387C411.479 286.142 415.838 285.94 418.017 285.937L421.979 285.933L422.436 288.376C422.98 291.279 425.667 294.676 428.72 296.318C430.444 297.246 432.608 297.479 438.74 297.4C451.418 297.234 459.466 295.09 464.899 290.432C468.547 287.304 469.909 284.749 470.085 280.705C470.369 274.152 466.626 272.46 445.05 269.391C436.119 268.121 426.893 266.45 424.55 265.679C412.498 261.707 408.784 257.249 408.784 246.758C408.784 235.729 412.453 226.68 420.027 219.032C428.909 210.063 439.118 206.428 461.487 204.263C469.409 203.497 480.319 202.412 485.73 201.85C491.141 201.289 498.852 200.617 502.867 200.359L510.167 199.891L509.692 201.79C508.867 205.08 506.663 216.321 505.393 223.715L504.172 230.831L498.113 231.278C494.781 231.522 490.394 231.928 488.365 232.178C485.059 232.585 484.674 232.494 484.66 231.303C484.624 228.166 481.976 224.075 478.932 222.446C476.176 220.974 475.004 220.825 466.405 220.853C454.929 220.892 447.511 222.362 443.275 225.435C434.334 231.922 433.713 240.932 441.994 243.98C443.632 244.584 451.456 245.882 459.378 246.869C491.949 250.918 498.761 254.933 498.717 270.047C498.686 281.299 495 289.763 486.438 298.251C475.23 309.361 460.688 314.045 430.743 316.188C422.464 316.78 420.958 317.073 420.041 318.265C419.194 319.368 417.017 319.953 409.487 321.097C404.27 321.891 399.132 322.732 398.068 322.972C396.598 323.3 396.135 323.139 396.135 322.299Z" fill="#FBFAF8" stroke="#FBFAF8"/>
</g>
<g id="nose_and_mouth">
<path id="chin" d="M658.736 757.437C688.872 827.374 596.085 889.336 543.91 889.668C502.701 898.973 422.204 864.9 405.715 799.513C397.399 766.539 420.498 718.773 458.467 693.422C471.291 687.42 479.695 702.267 508.749 697.824C537.363 688.823 541.441 680.578 556.114 680.686C603.584 686.364 645.347 726.365 658.736 757.437Z" fill="#E0DFDF"/>
<path id="shadow" d="M644.121 836.053C620.994 877.377 569.101 891.74 543.64 892.187C511.478 895.76 461.449 885.04 438.72 853.452C461.896 864.492 487.14 879.107 543.64 875.213C580.997 872.638 625.354 846.099 644.121 836.053Z" fill="#B0B0B1"/>
<path id="chin_2" d="M643.319 837.399C624.21 885.046 568.829 897.275 539.873 897.275C509.848 899.658 454.091 887.066 438.72 853.451C456.046 866.701 486.174 891.707 542.676 887.848C594.908 884.281 615.292 861.86 643.319 837.399Z" fill="black"/>
<g id="nose">
<path id="Vector 1" d="M445.194 698.348C440.955 688.854 447.734 666.79 451.749 656.895C451.749 656.895 448.206 683.645 450.833 690.91C452.28 690.022 453.382 683.464 467.61 684.887C480.515 686.178 485.407 694.805 509.322 690.199C526.153 686.958 537.675 677.673 547.624 674.563C558.861 671.05 564.259 675.112 566.54 677.622C569.982 672.029 566.178 661.147 564.368 647.499C567.014 653.07 577.337 678.317 571.5 687.011C566.089 695.07 534.851 738.256 514.93 739.95C495.858 741.572 449.623 708.268 445.194 698.348Z" fill="black" stroke="black"/>
<path id="Vector 2" d="M544.932 681.193C541.096 683.788 518.305 693.943 506.683 696.425C501.193 696.613 486.939 695.906 473.851 691.573C457.491 686.158 452.978 689.43 451.511 696.312C450.044 703.195 458.771 707.465 464.735 705.296C477.913 700.504 491.99 716.677 492.888 719.971C493.938 723.82 493.37 726.211 494.837 728.693C496.01 730.679 504.558 733.451 511.197 733.319C520.013 733.145 524.638 729.389 531.844 724.18C531.957 721.021 531.858 720.143 531.823 714.431C531.759 703.908 542.363 692.951 550.573 693.717C557.69 694.381 566.933 691.461 564.789 682.434C562.646 673.408 548.768 678.598 544.932 681.193Z" fill="#C2A4A3" stroke="black"/>
<path id="Vector 3" d="M501.901 618.527C483.509 621.102 472.014 630.941 468.565 635.539C475.922 632.397 488.094 625.335 501.671 623.355C512.706 621.745 530.025 623.968 538.684 625.654C534.087 622.205 520.293 615.952 501.901 618.527Z" fill="black"/>
</g>
<path id="mouth" d="M556.008 766.529C556.26 769.982 535.693 775.432 524.236 777.123C513.849 778.655 490.028 777.705 489.776 774.252C489.524 770.799 510.375 764.865 521.961 761.695C536.464 761.582 555.755 763.077 556.008 766.529Z" fill="#B2B2B3"/>
<path id="mouth_line" d="M522.483 753.779L508.754 706.608L513.909 755.632C509.832 761.52 501.498 772.118 472.913 773.818C441.277 775.7 414.921 751.555 412.338 739.536C410.585 731.382 402.448 739.445 400.654 743.855L406.542 743.402C411.524 758.575 442.172 779.738 457.479 781.801C484.211 785.404 499.593 779.466 521.982 764.986C565.723 774.567 578.241 771.03 597.976 759.45C617.643 747.909 636.595 721.58 639.764 710.55L648.212 710.198C647.266 707.407 643.869 700.839 638.003 700.693C627.423 700.431 633.779 701.75 632.019 711.958C630.259 722.167 610.697 744.059 592.654 754.128C566.267 768.852 530.894 759.934 522.483 753.779Z" fill="black" stroke="black"/>
<g id="wiskers">
<g id="wiskers_L">
<path id="Vector 5" d="M754.112 741.292C707.592 730.04 629.069 734.223 595.623 737.722L596.335 741.893C638.807 737.448 677.602 735.466 754.112 741.292Z" fill="black"/>
<path id="Vector 6" d="M774.117 695.794C716.981 690.583 634.276 712.338 601.319 720.24L602.031 724.41C642.492 715.829 695.49 699.88 774.117 695.794Z" fill="black"/>
<path id="Vector 7" d="M761.383 649.642C698.044 651.113 620.266 692.949 591.755 713.23L595.07 716.275C631.979 694.87 680.226 665.398 761.383 649.642Z" fill="black"/>
</g>
<g id="wiskers_R">
<path id="Vector 8" d="M309.173 806.909C347.306 784.051 417.794 767.802 448.272 762.534L448.745 766.737C410.042 773.425 375.238 781.534 309.173 806.909Z" fill="black"/>
<path id="Vector 9" d="M286.731 769.478C332.345 749.456 406.437 748.6 435.751 747.522L436.313 751.713C400.632 754.111 352.601 752.732 286.731 769.478Z" fill="black"/>
<path id="Vector 10" d="M260.229 726.811C323.639 709.464 413.218 726.457 447.502 737.417L445.097 741.312C402.134 731.763 345.536 717.854 260.229 726.811Z" fill="black"/>
</g>
</g>
</g>
<path id="cap_shade_highlight" d="M281.132 397.071C302.66 384.948 350.135 364.956 388.735 356.116C378.521 360.634 354.208 372.32 340.064 379.391C325.921 386.463 288.702 410.212 271.907 421.9C249.96 430.489 233.393 438.014 214.932 449.167C229.062 436.986 250.783 414.161 281.132 397.071Z" fill="#587295"/>
<path id="cap_shadow_L" d="M760.743 363.161C755.532 388.348 733.447 390.872 723.193 388.701C729.345 392.079 742.882 397.523 754.229 401.159C766.024 404.938 784.126 403.144 791.726 402.902C791.726 402.902 791.375 384.594 785.593 353.628C773.221 287.355 756.545 263.363 751.334 260.023C761.467 284.27 767.257 331.677 760.743 363.161Z" fill="black" fill-opacity="0.26"/>
<path id="highlight_3" d="M620.272 184.571C616.149 181.607 592.309 168.206 577.104 161.118C631.87 175.164 666.61 190.389 701.585 211.246C732.36 229.598 744.287 238.184 758.384 266.646C734.21 242.044 718.723 233.152 702.432 223.218C677.879 208.245 625.169 186.504 620.272 184.571Z" fill="#587295"/>
<path id="cap_head_shadow" d="M777.374 411.685L788.871 427.632C775.172 428.228 756.262 428.526 742.862 425.845C711.147 469.174 700.427 479.448 665.585 491.062C618.547 506.741 482.444 445.946 368.539 470.961C290.954 487.999 239.158 520.889 229.218 547.224C229.203 547.264 229.188 547.304 229.173 547.344C229.188 547.304 229.203 547.264 229.218 547.224C236.515 527.653 237.002 467.598 296.176 441.479C331.492 425.891 388.689 417.47 444.444 420.996C488.868 423.806 528.811 435.277 557.226 445.61C597.637 460.305 634.055 478.117 657.885 475.734C683.601 473.163 726.123 431.297 743.904 406.979C758.645 412.339 777.374 411.685 777.374 411.685Z" fill="black" fill-opacity="0.16"/>
<g id="eye_R">
<path id="outer" d="M271.201 624.141C276.777 644.449 283.965 652.946 293.041 659.811C294.059 660.581 273.597 665.404 269.26 671.042C275.91 669.452 285.815 666.62 294.635 665.025C306.124 662.947 330.411 660.634 342.265 660.055C363.799 659.005 383.737 662.693 401.744 666.965C410.939 669.147 422.115 674.243 429.139 676.76C430.771 668.022 431.655 660.17 432.172 652.949C432.87 643.204 433.266 623.551 431.921 615.09C427.439 586.889 419.909 564.557 403.755 547.16C387.96 530.15 361.09 520.327 336.566 522.528C316.983 524.285 289.862 536.217 276.549 559.37C262.882 583.139 265.414 603.064 271.201 624.141Z" fill="#020201"/>
<path id="white_mask" d="M279.467 624.018C291.68 660.686 301.242 658.09 334.681 654.898C365.978 651.911 387.922 657.411 398.089 659.67C409.376 662.178 414.863 665.79 418.375 659.941C420.332 656.683 420.972 655.818 422.148 651.705C433.506 611.973 416.193 525.499 331.219 534.412C301.078 537.574 263.477 576.009 279.467 624.018Z" fill="white"/>
<mask id="mask0_123_2" style="mask-type:alpha" maskUnits="userSpaceOnUse" x="275" y="533" width="151" height="131">
<path id="white_mask_2" d="M279.467 624.018C291.68 660.686 301.242 658.09 334.681 654.898C365.978 651.911 387.922 657.411 398.089 659.67C409.376 662.178 414.863 665.79 418.375 659.941C420.332 656.683 420.972 655.818 422.148 651.705C433.506 611.973 416.193 525.499 331.219 534.412C301.078 537.574 263.477 576.009 279.467 624.018Z" fill="white"/>
</mask>
<g mask="url(#mask0_123_2)">
<g id="eye_ball">
<ellipse id="cyan" cx="67.7844" cy="69.885" rx="67.7844" ry="69.885" transform="matrix(1 0 0 -1 301.499 675.162)" fill="#1097AF"/>
<path id="cyan_2" d="M434.978 587.031C441.271 619.62 423.385 661.006 377.009 671.219C350.095 677.146 312.146 648.309 313.983 629.737C331.468 606.353 377.453 589.826 404.891 585.927C412.813 584.801 433.41 578.909 434.978 587.031Z" fill="#34DCED"/>
<ellipse id="black" cx="50.8383" cy="53.5715" rx="50.8383" ry="53.5715" transform="matrix(1 0 0 -1 322.053 657.842)" fill="black"/>
<ellipse id="highlight_upper" cx="8.30906" cy="9.18371" rx="8.30906" ry="9.18371" transform="matrix(1 0 0 -1 386.995 643.629)" fill="#F0EFEF"/>
<ellipse id="highlight_lower" cx="15.7434" cy="15.7164" rx="15.7434" ry="15.7164" transform="matrix(1 0 0 -1 324.021 596.781)" fill="#F0EFEF"/>
</g>
<path id="eye_ball_shadow" d="M311.949 533.882C343.708 515.18 386.642 532.9 398.875 546.545C398.875 546.545 407.344 556.072 413.696 571.599C406.286 571.952 395.228 578.697 378.29 570.934C316.758 542.732 284.543 571.757 276.662 588.578C278.074 577.992 279.326 553.094 311.949 533.882Z" fill="black" fill-opacity="0.28"/>
</g>
</g>
<g id="eye_L">
<path id="outer_2" d="M757.791 569.025C757.791 586.228 755 594.753 748.853 607.257C747.836 609.326 761.747 612.178 766.912 617.444C733.799 610.14 723.203 612.675 712.316 613.507C692.721 615.003 662.658 621.677 641.636 630.567C629.145 635.849 614.617 645.957 605.077 657.986C598.233 648.653 593.363 637.356 591.063 623.865C571.031 539.54 609.587 480.255 664.85 481.54C732.081 483.103 756.75 513.351 757.791 569.025Z" fill="#020201"/>
<path id="white_mask_3" d="M748.78 568.728C749.658 586.104 746.782 596.678 743.512 606.488C729.03 603.685 700.964 605.566 678.761 610.97C616.367 626.159 613.146 636.643 608.797 632.821C602.735 627.494 598.043 620.975 596.126 607.793C586.732 556.101 607.502 490.814 663.239 492.743C732.689 495.147 747.518 543.732 748.78 568.728Z" fill="white"/>
<mask id="mask1_123_2" style="mask-type:alpha" maskUnits="userSpaceOnUse" x="593" y="492" width="156" height="142">
<path id="white_mask_4" d="M748.78 568.728C749.658 586.104 746.782 596.678 743.512 606.488C729.03 603.685 700.964 605.566 678.761 610.97C616.367 626.159 613.146 636.643 608.797 632.821C602.735 627.494 598.043 620.975 596.126 607.793C586.732 556.101 607.502 490.814 663.239 492.743C732.689 495.147 747.518 543.732 748.78 568.728Z" fill="white"/>
</mask>
<g mask="url(#mask1_123_2)">
<g id="eye_ball_2">
<circle id="cyan_3" cx="651.129" cy="571.211" r="70.0036" fill="#1097AF"/>
<path id="cyan_4" d="M714.265 570.038C720.558 602.627 690.391 638.153 655.136 638.153C627.577 638.153 600.318 619.932 604.139 598.356C620.418 578.557 671.005 564.99 698.443 561.091C706.365 559.965 712.697 561.916 714.265 570.038Z" fill="#34DCED"/>
<circle id="black_2" cx="647.599" cy="570.393" r="53.7023" fill="black"/>
<circle id="highlight_upper_2" cx="674.22" cy="540.42" r="15.5807" fill="#F0EFEF"/>
<circle id="highlight_lower_2" cx="633.842" cy="605.815" r="8.9973" fill="#F0EFEF"/>
</g>
<path id="eye_ball_shadow_2" d="M642.44 524.411C615.871 533.267 602.385 547.961 591.315 568.894C591.315 568.894 569.979 556.817 565.148 554.402C566.758 538.702 633.254 492.566 657.352 488.363C694.437 481.895 732.774 498.968 743.703 538.198C712.88 505.974 664.273 517.133 642.44 524.411Z" fill="black" fill-opacity="0.28"/>
</g>
</g>
<ellipse id="blush_L" opacity="0.59" cx="736.5" cy="665" rx="71.5" ry="52" fill="url(#paint0_radial_123_2)"/>
<ellipse id="blush_R" opacity="0.59" cx="331.5" cy="702" rx="71.5" ry="52" fill="url(#paint1_radial_123_2)"/>
</g>
</g>
<defs>
<radialGradient id="paint0_radial_123_2" cx="0" cy="0" r="1" gradientUnits="userSpaceOnUse" gradientTransform="translate(736.5 665) rotate(90) scale(52 71.5)">
<stop stop-color="#FF98B1"/>
<stop offset="1" stop-color="#FF98B1" stop-opacity="0"/>
</radialGradient>
<radialGradient id="paint1_radial_123_2" cx="0" cy="0" r="1" gradientUnits="userSpaceOnUse" gradientTransform="translate(331.5 702) rotate(90) scale(52 71.5)">
<stop stop-color="#FF98B1"/>
<stop offset="1" stop-color="#FF98B1" stop-opacity="0"/>
</radialGradient>
</defs>
</svg>
