<svg width="1024" height="1024" viewBox="0 0 1024 1024" fill="none" xmlns="http://www.w3.org/2000/svg">
<rect width="1024" height="1024" fill="#1E1E1E"/>
<g id="caution">
<g id="shock">
<path id="shock_2" d="M889.575 280.802L969.059 166.136L896.089 231.287L873.938 189.59L782.727 329.014L866.12 232.59L889.575 280.802Z" fill="#F5D300"/>
<path id="shock_3" d="M881.485 534.398L1006.88 495.514L905.078 500.756L904.204 459.688L745.172 528.281L877.553 488.086L881.485 534.398Z" fill="#F5D300"/>
<path id="shock_4" d="M91.5347 411.321L11.6072 296.88L86.0849 369.541L106.384 336.157L206.842 477.24L114.459 374.256L91.5347 411.321Z" fill="#F5D300"/>
<path id="shock_5" d="M162.786 768.107L44.7958 847.861L121.069 762.195L85.1942 716.35L287.187 675.092L125.593 725.805L162.786 768.107Z" fill="#F5D300"/>
<path id="shock_6" d="M800.04 97.7239L745.312 27.3607L723.16 131.603L678.858 97.7239L667.131 280.147L698.404 155.057L750.525 201.966L800.04 97.7239Z" fill="#F5D300"/>
<path id="shock_7" d="M52.0844 195.487L86.2426 113.15L135.188 207.815L168.947 163.421L228.526 336.239L165.268 223.883L127.418 282.911L52.0844 195.487Z" fill="#F5D300"/>
</g>
<g id="leo">
<g id="ear_R">
<path id="ear_outer_R" d="M79.201 540.044C98.1905 637.823 207.168 660.961 224.251 663.597L256.554 482.176C241.401 462.198 223.974 429.796 184.656 417.225C109.827 396.481 60.2114 442.264 79.201 540.044Z" fill="#C8C8C8" stroke="black" stroke-width="8"/>
<path id="ear_inner_R" d="M109.933 532.602C123.269 585.324 186.287 622.891 218.504 620.025L227.616 528.346C217.791 515.392 192.522 487.612 168.861 475.103C111.27 444.657 97.6021 483.856 109.933 532.602Z" fill="#465560" stroke="black" stroke-width="6"/>
<path id="highlight" opacity="0.55" d="M246.671 449.529C225.087 436.767 180.547 414.504 136.021 419.48C113.599 421.072 90.8318 443.483 83.4184 475.78C79.6917 492.015 80.4182 530.429 89.2228 551.839C89.6197 531.705 75.4242 479.835 106.91 444.432C128.187 420.507 162.336 435.415 246.671 449.529Z" fill="#EBECED"/>
<path id="ear_inner_shadow" d="M136.317 497.378C151.485 499.042 199.626 547.482 221.8 571.494C238.118 589.164 167.756 601.029 167.756 601.029C167.756 601.029 220.308 632.398 241.686 604.57C271.669 565.541 240.199 542.033 240.199 542.033C229.146 530.477 191.518 493.608 177.418 485.173C152.46 470.243 141.802 466.704 126.271 469.759C113.89 472.195 109.994 491.33 109.808 500.516C112.848 498.834 121.149 495.715 136.317 497.378Z" fill="black" fill-opacity="0.26"/>
<path id="ear_outer_shadow" d="M203.541 652.828C198.264 653.391 170.101 641.975 155.503 633.151C178.681 630.19 196.259 621.151 196.259 621.151L203.302 622.96C202.842 633.023 203.384 649.326 203.541 652.828Z" fill="black" fill-opacity="0.26"/>
</g>
<path id="ear_hair" d="M253.576 526.51C253.576 526.51 202.278 512.305 164.89 515.836C168.525 522.443 184.91 539.477 202.64 540.128C188.128 540.972 178.633 543.223 163.462 548.422C171.57 553.904 190.723 564.188 202.465 561.464C214.208 558.741 182.105 568.442 173.908 576.532C192.865 576.13 229.719 563.994 229.719 563.994L253.576 526.51Z" fill="black"/>
<g id="ear_L">
<path id="ear_outer_L" d="M847.813 303.363C888.264 394.386 809.111 478.987 796.62 490.935L664.876 360.891C665.851 335.835 663.178 296.278 688.203 263.45C737.652 203.58 807.362 212.34 847.813 303.363Z" fill="#C8C8C8" stroke="black" stroke-width="8"/>
<path id="ear_inner_L" d="M818.628 317.729C839.951 375.247 803.083 435.971 775.034 452.079L715.045 382.156C715.677 365.91 723.321 324.328 735.549 300.52C765.311 242.573 801.15 270.583 818.628 317.729Z" fill="#465560" stroke="black" stroke-width="6"/>
<path id="highlight_2" opacity="0.55" d="M664.876 360.891C665.851 335.835 669.041 300.441 694.065 267.612C717.819 238.852 743.876 228.042 768.894 233.405C823.113 246.424 852.648 315.432 851.967 367.517C840.432 302.335 816.032 246.028 757.934 242.527C697.555 238.889 664.876 360.891 664.876 360.891Z" fill="#EBECED"/>
<path id="ear_inner_shadow_2" d="M773.929 299.878C759.447 313.116 746.722 379.662 734.135 409.826C724.873 432.022 776.952 447.211 776.952 447.211C776.952 447.211 759.186 472.812 729.556 454.011C688 427.642 701.859 397.206 701.859 397.206C708.275 382.558 730.853 318.008 738.58 303.508C744.213 292.937 755.976 274.765 771.612 272.305C784.077 270.344 798.494 285.304 801.821 293.869C798.389 293.332 785.193 289.583 773.929 299.878Z" fill="black" fill-opacity="0.26"/>
<path id="ear_outer_shadow_2" d="M805.762 471.682C810.912 470.4 829.639 439.897 837.233 424.322C814.33 433.809 802.33 431.652 802.33 431.652L789.439 446.137C793.324 455.431 804.707 468.339 805.762 471.682Z" fill="black" fill-opacity="0.26"/>
</g>
<path id="ear_hair_2" d="M758.89 335.591C735.959 357.897 708.476 367.019 708.476 367.019L722.054 405.341C722.054 405.341 767.393 402.602 779.633 392.085C758.481 394.166 752.677 396.034 748.098 393.706C759.691 390.406 771.472 372.136 775.913 363.413C758.593 369.505 755.984 372.805 733.462 377.171C751.715 370.038 758.909 343.784 758.89 335.591Z" fill="black"/>
<path id="head" d="M890.376 611.667C870.624 594.422 843.488 558.283 826.918 519.151C803.63 472.092 771.943 426.52 736.939 393.346C660.143 320.564 538.555 300.112 408.867 345.897C279.179 391.682 233.158 504.554 217.495 558.371C200.302 616.824 211.828 678.384 215.345 727.829C218.526 772.557 212.336 799.947 209.749 811.245L224.239 804.97C224.239 804.97 224.147 834.48 227.979 841.264C230.255 840.326 235.909 836.727 240.842 834.98C247.942 849.292 307.097 879.72 354.326 890.475C401.555 901.23 460.176 921.434 494.66 921.885C494.66 921.885 547.995 920.058 584.225 909.471C625.411 897.435 668.893 875.76 668.893 875.76C673.886 874.148 702.037 837.043 779.323 784.848C832.026 749.256 871.275 687.115 877.284 645.565L892.921 644.436L876.765 615.423C880.606 614.798 885.401 613.07 890.376 611.667Z" fill="#C8C8C8" stroke="black" stroke-width="8"/>
<path id="head_shadow" d="M776.578 782.769C832.509 745.902 878.837 661.82 872.42 642.34C835.451 700.042 752.41 789.437 672.709 854.615C663.403 862.225 627.389 879.423 579.619 892.883C536.928 904.911 492.16 904.768 478.052 905.821C435.099 909.025 302.619 868.135 243.644 832.624C250.756 846.552 308.433 876.1 355.662 886.855C402.891 897.61 460.444 918.429 494.928 918.879C494.928 918.879 550.279 912.645 575.515 905.663C610.324 896.032 667.309 872.547 667.309 872.547C672.303 870.936 698.713 834.096 776.578 782.769Z" fill="#B0B0B1"/>
<path id="head_shadow_L" d="M879.514 607.288C864.712 593.615 843.066 572.244 825.289 533.644C802.533 484.231 775.546 437.789 740.542 404.615C759.688 425.928 799.552 501.971 809.354 529.438C817.913 553.419 861.439 613.184 883.202 641.019C886.772 641.424 884.206 638.639 884.206 638.639C884.206 638.639 863.226 610.869 863.633 606.692C867.474 606.068 874.539 608.691 879.514 607.288Z" fill="#EBECED"/>
<path id="head_shadow_R" d="M229.663 826.678C229.543 830.931 229.42 835.302 232.579 833.5C235.715 829.185 240.887 793.2 235.795 791.73C234.366 791.318 230.94 788.8 227.133 790.692C233.216 763.818 229.598 729.974 224.973 692.152C223.345 680.661 219.502 665.498 214.049 620.482C213.227 671.019 218.631 688.229 222.147 737.674C225.329 782.402 219.013 791.917 216.426 803.215C216.426 803.215 226.651 794.694 229.742 795.363C232.647 795.992 229.717 816.609 229.671 826.396L229.663 826.678Z" fill="#EBECE8"/>
<g id="spots">
<path id="spot" d="M794.013 595.809C808.161 603.716 809.212 618.349 800.093 637.106C789.027 659.866 754.84 671.38 747.495 662.233C738.883 651.511 758.68 639.673 762.87 623.084C767.979 602.864 773.887 584.56 794.013 595.809Z" fill="#485760"/>
<path id="spot_2" d="M261.122 755.079C250.547 767.361 264.601 788.779 274.603 793.957C298.545 806.351 324.225 800.165 327.985 789.053C332.393 776.026 313.268 775.356 300.901 767.389C283.369 756.095 276.166 737.606 261.122 755.079Z" fill="#485760"/>
<path id="spot_3" d="M848.847 633.6C859.638 638.327 858.304 667.384 844.526 686.832C828.133 709.971 800.689 720.074 792.504 710.529C782.33 698.665 807.189 686.447 819.038 674.104C832.328 660.259 831.784 626.126 848.847 633.6Z" fill="#485760"/>
<path id="spot_4" d="M256.27 814.795C247.757 822.938 266.91 848.274 285.441 856.781C311.316 868.66 332.731 857.58 335.208 850.855C340.61 836.189 317.579 836.013 300.566 834.197C278.406 831.833 269.732 801.919 256.27 814.795Z" fill="#485760"/>
<path id="spot_5" d="M359.205 841.425C357.236 853.041 366.845 853.925 378.715 854.755C381.702 854.964 391.052 851.005 393.922 846.9C398.043 841.007 393.843 836.033 390.098 834.667C384.426 832.6 360.558 833.44 359.205 841.425Z" fill="#485760"/>
<path id="spot_6" d="M748.766 728.19C757.578 734.826 747.457 745 739.724 749.722C728.618 756.502 719.891 756.27 715.786 753.399C709.893 749.279 714.928 739.932 717.978 737.364C722.595 733.476 742.297 723.317 748.766 728.19Z" fill="#485760"/>
<path id="spot_7" d="M365.409 778.11C353.749 779.792 359.575 797.25 367.696 800.508C380.15 805.503 397.875 800.15 401.369 796.56C421.09 776.303 412.949 771.038 408.692 768.773C403.362 765.938 391.077 774.405 365.409 778.11Z" fill="#485760"/>
<path id="spot_8" d="M695.953 681.165C707.482 678.744 708.287 697.934 702.737 704.7C694.359 714.912 670.319 718.882 665.643 717.085C638.165 706.524 647.498 693.307 652.291 692.779C681.15 689.604 670.573 686.495 695.953 681.165Z" fill="#485760"/>
<path id="spot_9" d="M714.364 438.012C724.07 430.014 738.085 438 748.335 453.863C763.725 477.68 760.161 494.972 751.459 495.174C745.827 495.305 738.473 484.863 727.346 471.866C721.902 465.507 699.988 449.859 714.364 438.012Z" fill="#485760"/>
<path id="spot_10" d="M792.777 532.453C802.483 524.455 816.417 542.532 820.098 550.771C827.085 566.412 830.887 585.392 822.185 585.595C816.553 585.726 809.862 583.025 799.176 569.662C797.749 567.877 778.401 544.3 792.777 532.453Z" fill="#485760"/>
<path id="spot_11" d="M396.793 561.434C391.409 560.801 381.906 552.554 378.074 545.19C374.011 537.382 375.39 524.569 386.703 529.486C394.803 533.005 404.038 545.067 404.48 553.765C404.778 559.611 402.167 562.067 396.793 561.434Z" fill="#485760"/>
<path id="spot_12" d="M376.848 511.652C371.464 511.018 362.443 503.01 359.559 495.226C356.789 487.748 357.731 474.868 369.043 479.785C377.143 483.305 383.688 495.17 384.13 503.868C384.428 509.714 382.222 512.284 376.848 511.652Z" fill="#485760"/>
<path id="spot_13" d="M411.565 524.959C405.358 521.22 399.696 507.622 398.894 499.36C398.082 490.99 402.017 480.68 413.329 485.598C421.428 489.117 424.286 505.319 424.729 514.017C425.004 526.238 418.112 528.903 411.565 524.959Z" fill="#485760"/>
<path id="spot_14" d="M236.72 649.377C222.058 645.026 222.974 608.727 227.127 598.11C234.83 578.414 249.211 584.98 250.54 592.056C253.54 608.022 246.825 611.294 246.554 623.499C246.339 633.16 247.279 652.511 236.72 649.377Z" fill="#485760"/>
<path id="spot_15" d="M236.679 753.991C233.553 753.027 231.77 750.681 230.096 745.338C226.254 733.072 224.586 715.597 226.619 708.899C227.867 704.782 231.935 701.14 235.091 701.314C239.983 701.58 244.341 706.832 246.649 715.244C249.918 727.157 247.792 747.322 242.749 752.213C240.446 754.446 239.268 754.791 236.679 753.991Z" fill="#485760"/>
<path id="spot_16" d="M494.973 551.996C493.708 548.895 493.499 542.522 495.109 539.737C498.173 534.439 505.519 536.596 507.828 543.47C509.018 547.015 508.547 553.336 506.855 556.496C503.246 563.238 496.716 556.269 494.973 551.996Z" fill="#485760"/>
<path id="spot_17" d="M488.904 495.637C478.114 486.381 478.939 469.126 482.104 463.65C486.712 455.675 498.654 456.692 500.962 463.566C502.153 467.111 504.664 482.178 503.462 489.644C502.842 493.496 498.495 503.864 488.904 495.637Z" fill="#485760"/>
<path id="spot_18" d="M524.833 516.594C517.608 510.214 521.967 490.686 526.841 484.665C532.636 477.507 539.628 479.184 541.937 486.058C543.127 489.603 543.566 499.681 539.228 508.732C537.542 512.251 534.304 524.958 524.833 516.594Z" fill="#485760"/>
<path id="spot_19" d="M437.439 578.887C434.422 578.204 430.681 573.788 429.331 569.314C426.872 561.164 432.47 555.067 438.262 559.587C442.048 562.541 444.619 570.722 443.208 575.317C442.232 578.493 440.48 579.576 437.439 578.887Z" fill="#485760"/>
<path id="eye_spot_R" d="M427.561 737.642C431.213 734.838 438.88 727.16 439.569 722.252C436.842 690.799 432.397 665.683 421.509 628.223C411.13 595.64 386.087 558.913 358.682 543.89C351.301 540.322 359.863 571.202 334.372 582.967C332.638 622.348 342.429 678.602 268.879 680.073C261.048 683.942 260.388 692.244 261.724 699.79C266.141 724.75 280.652 744.256 303.467 755.209C332.075 772.501 387.64 766.707 427.561 737.642Z" fill="#E0E1E1"/>
<path id="eye_spot_L" d="M616.951 674.877C609.643 674.173 604.517 674.025 603.165 674.482C600.576 675.353 599.857 674.83 597.263 670.178C579.877 644.157 562.583 620.702 553.115 576.918C549.13 560.21 544.401 499.306 564.986 475.79C570.694 469.906 583.73 492.721 611.711 495.022C626.855 531.416 671.722 566.402 741.31 542.541C747.58 547.087 752.677 555.189 754.012 562.736C758.429 587.695 746.971 619.061 729.3 637.179C699.194 668.045 658.641 678.898 616.951 674.877Z" fill="#E0E1E1"/>
<path id="spot_20" d="M576.756 485.037C567.419 484.362 561.869 476.156 558.037 468.793C553.974 460.984 555.353 448.172 566.666 453.088C574.766 456.608 586.35 467.343 586.632 478.084C586.786 483.936 582.153 485.427 576.756 485.037Z" fill="#485760"/>
<path id="spot_21" d="M332.999 560.42C316.01 548.266 308.793 528.53 311.799 513.244C315.88 492.492 326.951 492.458 338.263 497.375C346.362 500.895 357.545 520.736 356.939 546.426C356.651 558.646 345.533 569.387 332.999 560.42Z" fill="#485760"/>
</g>
<g id="cap">
<path id="cap_top" d="M405.839 163.856C415.84 162.086 425.259 163.297 432.373 166.532C439.503 169.775 444.04 174.886 445.098 180.862C446.155 186.838 443.647 193.196 438.064 198.688C432.493 204.169 424.061 208.538 414.06 210.309C404.058 212.079 394.639 210.868 387.524 207.632C380.395 204.39 375.858 199.279 374.8 193.303C373.743 187.327 376.25 180.969 381.834 175.476C387.405 169.996 395.837 165.626 405.839 163.856Z" fill="#5D7A9C" stroke="black" stroke-width="6"/>
<path id="cap_side" d="M658.258 221.732C602.372 189.865 487.692 165.263 412.929 182.873C593.951 198.04 634.567 374.226 645.04 378.355C647.224 379.256 678.687 385.466 692.104 389.532C714.445 395.148 732.164 389.507 747.594 385.189C734.092 327.768 699.071 245.004 658.258 221.732Z" fill="#32455D" stroke="black" stroke-width="6"/>
<path id="cap_front" d="M210.944 331.69C193.208 364.77 204.642 494.436 204.642 494.436C215.91 481.667 248.501 451.581 282.49 430.711C315.872 410.213 398.212 373.891 483.427 370.053C550.618 364.909 616.43 371.747 660.301 381.326C654.241 342.781 632.651 278.998 612.625 251.336C587.655 216.843 500.603 183.019 444.997 177.975C433.747 178.902 422.977 180.506 412.929 182.873C325.988 203.351 233.359 289.882 210.944 331.69Z" fill="#32455D" stroke="black" stroke-width="6"/>
<path id="cap_shade" d="M207.614 588.22C227.297 483.732 328.472 472.045 369.102 462.613C484.455 435.836 586.683 485.596 622.341 473.469C651.597 463.519 685.188 410.651 693.48 390.096C556.324 361.083 505.995 362.514 402.679 382.707C273.534 407.948 202.941 494.405 180.454 524.63L180.362 524.754C157.907 554.935 136.127 584.21 145.02 612.022C152.144 634.303 189.718 605.438 207.614 588.22Z" fill="#32455D" stroke="black" stroke-width="6"/>
<path id="shade_inner" d="M145.02 612.022C152.144 634.303 189.717 605.438 207.614 588.22C227.297 483.732 328.472 472.045 369.102 462.613C484.455 435.837 586.682 485.596 622.341 473.469C651.597 463.519 685.188 410.651 693.48 390.097L680.701 387.429C668.375 406.37 636.774 439.366 607.294 447.817C576.654 456.6 531.704 431.194 446.551 434.634C342.909 438.821 268.858 474.821 229.596 499.369C191.837 522.978 168.257 546.31 152.353 566.425C145.355 580.619 139.977 596.251 145.02 612.022Z" fill="#253345" stroke="black" stroke-width="6"/>
<path id="cap_shade_inner_line" d="M263.973 498.841C209.743 525.712 151.563 584.782 159.964 600.088" stroke="black" stroke-width="6" stroke-linecap="round"/>
<path id="cap_highlight_R" d="M213.15 337.349C198.099 365.356 208.581 484.882 208.581 484.882L217.631 475.722C215.712 442.271 212.906 356.066 224.588 336.658C246.175 300.797 328.192 231.177 377.813 205.056C400.304 193.961 456.302 185.256 499.373 193.607C493.835 191.065 467.168 184.14 444.908 182.208C433.657 183.135 422.39 184.92 412.342 187.287C325.401 207.765 235.607 295.562 213.15 337.349Z" fill="#587295"/>
<path id="54" d="M338.99 371.987C338.805 370.937 338.872 348.189 339.085 339.965L339.19 335.934L344.745 334.5C347.799 333.71 352.055 332.751 354.201 332.369L358.102 331.674L358.977 334.001C360.019 336.765 363.257 339.641 366.549 340.726C368.408 341.339 370.58 341.192 376.605 340.046C389.06 337.673 396.61 334.159 401.149 328.625C404.196 324.909 405.092 322.156 404.56 318.144C403.698 311.641 399.718 310.627 377.937 311.365C368.921 311.671 359.545 311.633 357.103 311.282C344.544 309.471 340.11 305.728 338.282 295.398C336.36 284.538 338.396 274.988 344.521 266.138C351.704 255.758 361.124 250.4 382.772 244.37C390.44 242.235 400.994 239.265 406.224 237.769C411.454 236.273 418.931 234.268 422.84 233.314L429.946 231.581L429.809 233.534C429.57 236.917 429.359 248.37 429.397 255.872L429.434 263.093L423.546 264.588C420.307 265.41 416.059 266.573 414.104 267.174C410.92 268.151 410.525 268.128 410.304 266.957C409.721 263.875 406.401 260.308 403.119 259.235C400.149 258.265 398.969 258.322 390.507 259.848C379.213 261.887 372.165 264.627 368.529 268.391C360.855 276.337 361.814 285.318 370.499 286.876C372.218 287.185 380.148 287.1 388.121 286.691C420.899 285.002 428.306 287.768 430.897 302.659C432.827 313.745 430.672 322.721 423.721 332.571C414.62 345.464 401.117 352.611 372.004 359.939C363.955 361.965 362.522 362.516 361.828 363.85C361.185 365.083 359.144 366.039 351.928 368.477C346.929 370.168 342.017 371.892 341.011 372.313C339.62 372.892 339.137 372.815 338.99 371.987Z" fill="#FBFAF8" stroke="#FBFAF8"/>
</g>
<g id="nose_and_mouth">
<path id="chin" d="M649.838 771.635C689.092 838.196 699.332 871.477 586.983 922.85C489.408 949.132 464.693 900.841 453.567 847.583C448.993 825.685 437.884 756.5 467.087 735.961C478.668 727.815 489.531 740.971 517.366 731.533C543.974 717.683 546.552 708.853 561.02 706.403C601.744 707.1 636.604 749.195 649.838 771.635Z" fill="#E0DFDF"/>
<path id="shadow" d="M676.5 851.089C660.929 895.812 612.332 918.998 587.339 923.875C556.292 932.998 505.161 931.16 477.275 904.016C502.02 910.849 529.425 920.841 584.381 907.161C620.717 898.115 659.771 864.253 676.5 851.089Z" fill="#B0B0B1"/>
<path id="chin_2" d="M675.763 854.057C665.249 904.304 612.847 925.997 584.334 931.043C555.183 938.622 498.086 935.939 477.092 905.517C496.462 915.545 530.486 934.918 585.451 921.272C636.263 908.658 652.427 883.027 675.763 854.057Z" fill="black"/>
<g id="nose">
<path id="Vector 1" d="M457.1 750.334C451.272 741.724 454.101 718.816 456.331 708.373C456.331 708.373 457.503 735.331 461.356 742.027C462.627 740.901 462.569 734.251 476.827 733.173C489.76 732.195 496.08 739.838 518.826 731.135C534.836 725.009 544.562 713.859 553.817 709.063C564.271 703.645 570.294 706.705 572.978 708.779C575.392 702.672 569.75 692.619 565.589 679.495C569.165 684.52 583.73 707.582 579.498 717.159C575.574 726.039 552.34 774.007 533.018 779.147C514.521 784.068 463.19 759.331 457.1 750.334Z" fill="black" stroke="black"/>
<path id="Vector 2" d="M552.321 716.06C548.996 719.284 528.323 733.255 517.313 737.724C511.938 738.866 497.78 740.654 484.137 738.668C467.084 736.187 463.21 740.195 462.965 747.228C462.72 754.26 472.057 756.944 477.552 753.77C489.693 746.754 506.373 760.227 507.832 763.314C509.536 766.921 509.393 769.375 511.27 771.563C512.772 773.314 521.672 774.554 528.186 773.268C536.837 771.56 540.736 767.055 546.925 760.67C546.485 757.54 546.235 756.692 545.205 751.073C543.308 740.723 551.841 728.085 560.059 727.409C567.182 726.823 575.775 722.336 572.091 713.822C568.407 705.308 555.647 712.837 552.321 716.06Z" fill="#C2A4A3" stroke="black"/>
<path id="Vector 4" d="M544.853 791.613C533.619 776.06 521.356 748.681 521.356 748.681C521.356 748.681 528.638 776.403 536.519 793.743C542.597 807.116 547.789 814.147 547.789 814.147L559.129 805.906C559.129 805.906 553.045 802.955 544.853 791.613Z" fill="black" stroke="black"/>
<path id="Vector 3" d="M499.028 661.851C481.367 667.592 471.762 679.284 469.168 684.413C475.865 680.037 486.619 670.961 499.643 666.645C510.229 663.138 527.67 662.308 536.491 662.459C531.363 659.865 516.69 656.111 499.028 661.851Z" fill="black"/>
</g>
<g id="mouth">
<path id="mouth_2" d="M648.459 823.642C663.446 859.376 617.942 876.382 575.607 882.43C538.926 887.67 505.147 924.066 484.448 887.558C457.178 839.46 473.946 789.154 528.202 771.24C591.77 750.25 626.961 772.385 648.459 823.642Z" fill="black"/>
<path id="tongue" d="M651.378 836.832C651.488 863.675 611.396 872.722 575.607 882.43C551.469 888.978 527.412 903.697 508.428 903.624C500.928 872.05 543.476 832.204 563.242 857.055C567.508 840.263 624.764 806.582 651.378 836.832Z" fill="#E2313C"/>
<path id="teeth" d="M578.412 765.012C584.986 775.196 562.396 784.232 537.583 794.176C514.978 803.234 489.495 810.018 486.06 800.009C499.921 787.281 507.964 778.99 528.202 771.24C550.942 762.532 566.552 761.39 578.412 765.012Z" fill="white"/>
<path id="teeth_2" d="M493.5 818C496 817.5 493.5 805.5 488.5 801C486 803.5 482.5 809 480 813C481.5 818 491.5 819.5 493.5 818Z" fill="white"/>
<path id="teeth_3" d="M611.665 854.703C609.118 854.8 609.682 867.045 613.905 872.281C616.77 870.21 621.098 865.335 624.201 861.782C623.513 856.607 613.878 853.54 611.665 854.703Z" fill="white"/>
<path id="teeth_4" d="M526.194 886.127C527.871 884.206 537.039 892.343 538.457 898.918C535.045 899.844 528.533 900.146 523.819 900.326C520.227 896.538 523.899 887.116 526.194 886.127Z" fill="white"/>
<path id="teeth_5" d="M586.016 783.676C583.814 784.961 577.72 774.326 578.474 767.641C582.003 767.852 588.271 769.643 592.796 770.976C594.992 775.712 588.507 783.471 586.016 783.676Z" fill="white"/>
<path id="mouth_outline" d="M648.458 823.642C663.445 859.376 616.164 868.868 575.606 882.43C538.037 894.993 505.146 924.066 484.447 887.558C457.177 839.46 473.946 789.154 528.202 771.24C591.769 750.25 626.961 772.385 648.458 823.642Z" stroke="black" stroke-width="8"/>
</g>
<g id="wiskers">
<path id="Vector 5" d="M764.364 749.226C717.139 741.447 639.141 751.43 606.045 757.394L607.064 761.5C649.091 753.925 687.633 749.077 764.364 749.226Z" fill="black"/>
<path id="Vector 6" d="M780.947 702.374C723.582 701.405 642.714 729.22 610.431 739.539L611.45 743.645C651.166 732.093 702.838 712.267 780.947 702.374Z" fill="black"/>
<path id="Vector 7" d="M764.833 657.291C701.776 663.445 627.307 710.921 600.375 733.256L603.907 736.048C639.13 711.971 685.064 679.009 764.833 657.291Z" fill="black"/>
<path id="Vector 8" d="M345.731 875.593C379.296 846.439 445.875 818.155 474.968 807.657L476.166 811.714C439.221 825.043 406.363 839.093 345.731 875.593Z" fill="black"/>
<path id="Vector 9" d="M317.109 842.646C358.535 814.981 431.345 801.227 460.023 795.057L461.306 799.086C426.59 807.665 379.053 814.677 317.109 842.646Z" fill="black"/>
<path id="Vector 10" d="M283.578 805.251C342.994 777.119 434.164 778.241 469.833 783.059L468.143 787.313C424.174 785.398 366.018 781.565 283.578 805.251Z" fill="black"/>
</g>
</g>
<path id="cap_shade_highlight" d="M238.777 465.657C257.863 449.968 301.127 422.009 337.596 406.578C328.325 412.807 306.421 428.55 293.726 437.978C281.031 447.406 248.521 477.277 234.019 491.713C213.905 503.996 198.903 514.293 182.668 528.492C194.459 514.035 211.87 487.774 238.777 465.657Z" fill="#587295"/>
<path id="cap_shadow_L" d="M705.14 348.687C704.398 374.397 683.091 380.731 672.616 380.38C679.262 382.634 693.54 385.636 705.348 387.239C717.621 388.905 735.133 383.983 742.574 382.421C742.574 382.421 739.038 364.455 727.949 334.969C704.217 271.866 683.615 251.148 677.902 248.768C692.105 270.877 706.068 316.55 705.14 348.687Z" fill="black" fill-opacity="0.26"/>
<path id="highlight_3" d="M535.697 197.309C531.12 195.11 505.31 186.067 489.102 181.738C545.478 186.025 582.339 194.963 620.413 209.406C653.915 222.114 667.157 228.491 685.998 254.061C657.907 234.047 641.107 227.991 623.334 221.047C596.548 210.583 540.856 198.359 535.697 197.309Z" fill="#587295"/>
<path id="cap_head_shadow" d="M729.972 393.571L744.072 407.271C730.687 410.245 712.118 413.833 698.456 413.529C674.777 461.721 666.011 473.706 633.726 491.214C590.14 514.85 445.525 478.704 337.723 523.185C264.294 553.483 219.022 594.896 213.824 622.559C213.816 622.602 213.808 622.644 213.8 622.686C213.808 622.644 213.816 622.602 213.824 622.559C217.598 602.017 207.613 542.796 261.329 506.765C293.388 485.261 348.243 467.002 403.759 460.758C447.993 455.782 489.324 460.118 519.105 465.341C561.458 472.769 600.422 483.962 623.473 477.463C648.347 470.449 682.923 421.814 696.194 394.769C711.643 397.479 729.972 393.571 729.972 393.571Z" fill="black" fill-opacity="0.16"/>
<g id="eye_R">
<path id="outer" d="M269.049 692.856C284.152 732.61 311.696 744.834 335.221 749.117C396.467 760.266 419.942 713.437 437.133 726.73C428.136 620.938 366.074 567.06 313.586 587.316C278.551 600 251.115 643.667 269.049 692.856Z" fill="#020201"/>
<path id="white" d="M283.881 690.038C294.881 727.088 311.024 739.58 344.873 743.462C356.396 744.784 411.934 738.972 422.932 711.617C437.734 674.801 384.268 569.682 313.904 607.449C287.201 621.781 274.851 659.623 283.881 690.038Z" fill="white"/>
<mask id="mask0_123_2" style="mask-type:alpha" maskUnits="userSpaceOnUse" x="280" y="599" width="146" height="145">
<path id="white_mask" d="M283.881 690.038C294.881 727.088 311.024 739.58 344.873 743.462C356.396 744.784 411.934 738.972 422.932 711.617C437.734 674.801 384.268 569.682 313.904 607.449C287.201 621.781 274.851 659.623 283.881 690.038Z" fill="white"/>
</mask>
<g mask="url(#mask0_123_2)">
<ellipse id="black" cx="388.889" cy="674.657" rx="21.8127" ry="41.6521" transform="rotate(-18.3857 388.889 674.657)" fill="black"/>
<path id="eye_ball_shadow" d="M306.41 611.549C334.423 587.598 370.973 603.109 385.397 614.413C385.397 614.413 395.396 622.319 404.357 636.501C397.121 638.14 396.223 641.165 378.192 636.473C312.687 619.425 286.023 653.62 281.194 671.556C280.739 660.886 277.634 636.151 306.41 611.549Z" fill="black" fill-opacity="0.28"/>
</g>
</g>
<g id="eye_L">
<path id="outer_2" d="M738.108 551.91C745.271 592.386 727.053 623.659 707.768 640.238C670.62 672.175 612.348 653.426 604.01 674.981C549.435 572.618 578.183 496.197 637.103 485.77C676.944 475.02 727.381 497.27 738.108 551.91Z" fill="#020201"/>
<path id="white_2" d="M725.752 556.739C736.189 596.496 722.49 616.859 693.813 639.009C684.051 646.549 632.999 666.107 613.464 653.757C559.917 619.904 576.414 516.061 637.112 503.734C677.552 495.521 715.044 515.95 725.752 556.739Z" fill="white"/>
<mask id="mask1_123_2" style="mask-type:alpha" maskUnits="userSpaceOnUse" x="581" y="501" width="149" height="157">
<path id="white_mask_2" d="M725.752 556.739C736.189 596.496 722.49 616.859 693.813 639.009C684.051 646.549 632.999 666.107 613.464 653.757C559.917 619.904 576.414 516.061 637.112 503.734C677.552 495.521 715.044 515.95 725.752 556.739Z" fill="white"/>
</mask>
<g mask="url(#mask1_123_2)">
<ellipse id="black_2" cx="616.267" cy="597.122" rx="21.8127" ry="44.0672" transform="rotate(-18.3857 616.267 597.122)" fill="black"/>
<path id="eye_ball_shadow_2" d="M617.609 545.026C592.989 558.377 582.271 575.196 575.017 597.738C575.017 597.738 551.903 589.564 546.726 588.027C545.575 572.287 603.013 515.27 626.01 506.932C661.4 494.1 702.127 504.231 719.724 540.956C683.757 514.596 637.839 534.055 617.609 545.026Z" fill="black" fill-opacity="0.28"/>
</g>
</g>
</g>
</g>
</svg>
