<svg width="1024" height="1024" viewBox="0 0 1024 1024" fill="none" xmlns="http://www.w3.org/2000/svg">
<rect width="1024" height="1024" fill="#1E1E1E"/>
<g id="frustrated">
<g id="leo">
<g id="ear_R">
<path id="ear_outer_R" d="M79.2248 540.097C98.2214 637.875 207.197 661.005 224.28 663.641L256.567 482.218C241.413 462.241 223.983 429.84 184.666 417.271C109.838 396.532 60.2282 442.319 79.2248 540.097Z" fill="#C8C8C8" stroke="black" stroke-width="8"/>
<path id="ear_inner_R" d="M109.955 532.653C123.295 585.375 186.313 622.937 218.529 620.069L227.634 528.39C217.808 515.437 192.537 487.658 168.876 475.15C111.285 444.708 97.6208 483.908 109.955 532.653Z" fill="#465560" stroke="black" stroke-width="6"/>
<path id="highlight" opacity="0.55" d="M246.682 449.571C225.097 436.811 180.558 414.551 136.034 419.53C113.613 421.123 90.848 443.536 83.4373 475.833C79.7121 492.068 80.4416 530.483 89.2476 551.891C89.6429 531.758 75.4438 479.888 106.925 444.483C128.2 420.557 162.349 435.463 246.682 449.571Z" fill="#EBECED"/>
<path id="ear_inner_shadow" d="M136.335 497.428C151.503 499.09 199.646 547.527 221.822 571.538C238.14 589.206 167.781 601.077 167.781 601.077C167.781 601.077 220.334 632.442 241.709 604.612C271.687 565.581 240.217 542.076 240.217 542.076C229.163 530.521 191.534 493.654 177.434 485.22C152.476 470.292 141.818 466.753 126.288 469.81C113.908 472.247 110.013 491.382 109.828 500.568C112.867 498.886 121.167 495.766 136.335 497.428Z" fill="black" fill-opacity="0.26"/>
<path id="ear_outer_shadow" d="M203.569 652.873C198.292 653.436 170.13 642.022 155.531 633.199C178.708 630.236 196.285 621.197 196.285 621.197L203.328 623.005C202.868 633.068 203.412 649.371 203.569 652.873Z" fill="black" fill-opacity="0.26"/>
</g>
<path id="ear_hair" d="M253.591 526.552C253.591 526.552 202.294 512.351 164.908 515.884C168.543 522.49 184.928 539.524 202.658 540.173C188.147 541.018 178.652 543.27 163.482 548.47C171.591 553.952 190.743 564.235 202.485 561.51C214.227 558.785 182.126 568.489 173.929 576.58C192.886 576.176 229.738 564.038 229.738 564.038L253.591 526.552Z" fill="black"/>
<g id="ear_L">
<path id="ear_outer_L" d="M847.816 303.346C888.273 394.366 809.13 478.973 796.64 490.921L664.89 360.887C665.864 335.831 663.188 296.274 688.208 263.444C737.651 203.57 807.359 212.326 847.816 303.346Z" fill="#C8C8C8" stroke="black" stroke-width="8"/>
<path id="ear_inner_L" d="M818.633 317.714C839.96 375.231 803.098 435.958 775.052 452.067L715.059 382.148C715.69 365.902 723.331 324.319 735.556 300.511C765.312 242.561 801.152 270.569 818.633 317.714Z" fill="#465560" stroke="black" stroke-width="6"/>
<path id="highlight_2" opacity="0.55" d="M664.89 360.887C665.863 335.831 669.05 300.436 694.07 267.606C717.822 238.844 743.877 228.033 768.894 233.394C823.113 246.409 852.651 315.415 851.975 367.5C840.435 302.319 816.032 246.013 757.935 242.516C697.558 238.882 664.89 360.887 664.89 360.887Z" fill="#EBECED"/>
<path id="ear_inner_shadow_2" d="M773.935 299.866C759.454 313.105 746.735 379.652 734.151 409.816C724.891 432.014 776.969 447.198 776.969 447.198C776.969 447.198 759.206 472.801 729.576 454.002C688.019 427.636 701.875 397.199 701.875 397.199C708.29 382.551 730.862 317.999 738.588 303.499C744.22 292.928 755.981 274.754 771.616 272.293C784.08 270.331 798.498 285.291 801.825 293.855C798.393 293.319 785.197 289.57 773.935 299.866Z" fill="black" fill-opacity="0.26"/>
<path id="ear_outer_shadow_2" d="M805.78 471.668C810.929 470.386 829.653 439.882 837.245 424.306C814.344 433.795 802.344 431.638 802.344 431.638L789.454 446.124C793.341 455.417 804.724 468.325 805.78 471.668Z" fill="black" fill-opacity="0.26"/>
</g>
<path id="ear_hair_2" d="M758.901 335.579C735.972 357.887 708.492 367.011 708.492 367.011L722.072 405.332C722.072 405.332 767.409 402.59 779.647 392.072C758.496 394.155 752.693 396.023 748.114 393.695C759.707 390.394 771.485 372.123 775.926 363.4C758.607 369.493 755.998 372.793 733.477 377.161C751.729 370.026 758.92 343.773 758.901 335.579Z" fill="black"/>
<path id="head" d="M890.374 611.667C870.622 594.424 843.484 558.286 826.911 519.155C803.62 472.098 771.931 426.528 736.926 393.357C660.126 320.579 538.541 300.136 408.861 345.929C279.181 391.723 233.171 504.598 217.513 558.416C200.325 616.87 211.855 678.429 215.376 727.874C218.561 772.602 212.373 799.992 209.788 811.29L224.276 805.014C224.276 805.014 224.186 834.524 228.019 841.308C230.295 840.369 235.948 836.77 240.881 835.023C247.982 849.334 307.137 879.758 354.365 890.51C401.594 901.262 456.604 903.537 491.087 903.985C491.087 903.985 544.42 902.155 580.648 891.565C621.832 879.527 665.31 857.848 665.31 857.848C670.303 856.236 702.059 837.055 779.339 784.855C832.037 749.26 871.28 687.117 877.285 645.566L892.922 644.436L876.764 615.424C880.604 614.799 885.399 613.07 890.374 611.667Z" fill="#C8C8C8" stroke="black" stroke-width="8"/>
<path id="head_shadow" d="M775.5 782.5C831.425 745.629 877.918 663.979 871.499 644.5C834.536 702.204 761.6 781.108 669.126 836.703C658.823 842.897 623.81 861.515 576.042 874.977C533.353 887.008 485.556 884.311 471.499 885.903C405.636 893.365 316.533 878.837 245.5 834C257.484 851.244 309.271 875.748 356.5 886.5C403.728 897.252 458.517 899.052 493 899.5C493 899.5 546.704 894.741 571.94 887.757C606.746 878.124 661.5 856 661.5 856C666.431 854.408 696.87 834.34 772.617 784.4L775.5 782.5Z" fill="#B0B0B1"/>
<path id="head_shadow_L" d="M879.542 607.268C864.739 593.596 843.092 572.226 825.313 533.628C802.554 484.217 775.565 437.776 740.56 404.604C759.706 425.916 799.574 501.956 809.379 529.422C817.939 553.404 861.469 613.165 883.233 640.999C886.802 641.403 884.237 638.618 884.237 638.618C884.237 638.618 863.255 610.85 863.662 606.673C867.503 606.048 874.568 608.671 879.542 607.268Z" fill="#EBECED"/>
<path id="head_shadow_R" d="M229.702 826.721C229.582 830.975 229.459 835.345 232.619 833.543C235.754 829.228 240.923 793.243 235.831 791.773C234.402 791.361 230.976 788.843 227.169 790.735C233.25 763.861 229.629 730.017 225.001 692.196C223.372 680.705 219.528 665.542 214.072 620.526C213.254 671.063 218.659 688.273 222.179 737.718C225.364 782.446 219.049 791.961 216.463 803.259C216.463 803.259 226.687 794.738 229.779 795.407C232.684 796.035 229.755 816.653 229.71 826.439L229.702 826.721Z" fill="#EBECE8"/>
<g id="spots">
<path id="spot" d="M794.015 595.816C808.162 603.722 809.214 618.354 800.097 637.112C789.034 659.873 754.849 671.389 747.503 662.242C738.891 651.521 758.686 639.682 762.875 623.093C767.982 602.872 773.888 584.568 794.015 595.816Z" fill="#485760"/>
<path id="spot_2" d="M261.156 755.12C250.583 767.403 264.637 788.82 274.64 793.997C298.582 806.39 324.26 800.202 328.02 789.09C332.427 776.063 313.302 775.394 300.935 767.428C283.402 756.135 276.198 737.646 261.156 755.12Z" fill="#485760"/>
<path id="spot_3" d="M848.85 633.603C859.641 638.329 858.31 667.386 844.534 686.835C828.143 709.975 800.701 720.08 792.515 710.536C782.34 698.672 807.198 686.452 819.045 674.108C832.333 660.263 831.787 626.13 848.85 633.603Z" fill="#485760"/>
<path id="spot_4" d="M256.309 814.837C247.796 822.98 266.95 848.315 285.482 856.821C311.357 868.698 332.77 857.616 335.246 850.892C340.647 836.225 317.617 836.051 300.604 834.236C278.445 831.873 269.769 801.96 256.309 814.837Z" fill="#485760"/>
<path id="spot_5" d="M359.241 841.46C357.274 853.076 366.883 853.959 378.752 854.788C381.739 854.997 391.088 851.038 393.958 846.932C398.079 841.039 393.879 836.065 390.133 834.7C384.461 832.633 360.594 833.475 359.241 841.46Z" fill="#485760"/>
<path id="spot_6" d="M748.78 728.199C757.592 734.835 747.472 745.009 739.739 749.732C728.635 756.513 719.908 756.281 715.802 753.411C709.909 749.29 714.944 739.943 717.993 737.375C722.61 733.486 742.31 723.327 748.78 728.199Z" fill="#485760"/>
<path id="spot_7" d="M365.442 778.144C353.782 779.828 359.609 797.285 367.73 800.542C380.184 805.536 397.908 800.182 401.402 796.592C421.12 776.334 412.979 771.069 408.722 768.805C403.392 765.97 391.108 774.438 365.442 778.144Z" fill="#485760"/>
<path id="spot_8" d="M695.965 681.178C707.494 678.756 708.3 697.946 702.751 704.712C694.374 714.925 670.335 718.896 665.659 717.099C638.181 706.54 647.513 693.323 652.306 692.795C681.163 689.618 670.586 686.509 695.965 681.178Z" fill="#485760"/>
<path id="spot_9" d="M714.356 438.024C724.061 430.025 738.077 438.01 748.327 453.872C763.719 477.689 760.156 494.981 751.455 495.184C745.823 495.315 738.468 484.874 727.341 471.877C721.897 465.518 699.982 449.871 714.356 438.024Z" fill="#485760"/>
<path id="spot_10" d="M792.774 532.46C802.479 524.461 816.414 542.537 820.095 550.776C827.084 566.416 830.887 585.396 822.186 585.599C816.553 585.731 809.863 583.03 799.176 569.668C797.749 567.884 778.399 544.308 792.774 532.46Z" fill="#485760"/>
<path id="spot_11" d="M396.806 561.467C391.423 560.834 381.919 552.587 378.087 545.224C374.023 537.416 375.401 524.603 386.714 529.519C394.814 533.038 404.05 545.099 404.493 553.797C404.791 559.643 402.181 562.099 396.806 561.467Z" fill="#485760"/>
<path id="spot_12" d="M376.859 511.686C371.475 511.053 362.453 503.045 359.569 495.262C356.798 487.784 357.739 474.903 369.052 479.819C377.151 483.339 383.697 495.203 384.14 503.901C384.438 509.748 382.233 512.318 376.859 511.686Z" fill="#485760"/>
<path id="spot_13" d="M411.574 524.99C405.368 521.252 399.704 507.654 398.902 499.392C398.089 491.023 402.023 480.712 413.335 485.629C421.436 489.148 424.294 505.349 424.737 514.048C425.013 526.268 418.122 528.934 411.574 524.99Z" fill="#485760"/>
<path id="spot_14" d="M236.745 649.42C222.083 645.07 222.997 608.771 227.148 598.154C234.849 578.457 249.231 585.022 250.561 592.098C253.561 608.064 246.847 611.337 246.576 623.541C246.362 633.203 247.304 652.553 236.745 649.42Z" fill="#485760"/>
<path id="spot_15" d="M236.713 754.034C233.587 753.07 231.804 750.724 230.13 745.382C226.287 733.116 224.617 715.641 226.65 708.943C227.898 704.826 231.965 701.184 235.121 701.357C240.014 701.623 244.372 706.875 246.68 715.286C249.951 727.2 247.826 747.364 242.783 752.256C240.481 754.489 239.302 754.834 236.713 754.034Z" fill="#485760"/>
<path id="spot_16" d="M494.981 552.022C493.716 548.922 493.507 542.548 495.117 539.764C498.18 534.465 505.526 536.621 507.835 543.495C509.026 547.04 508.555 553.361 506.863 556.521C503.255 563.264 496.725 556.295 494.981 552.022Z" fill="#485760"/>
<path id="spot_17" d="M488.908 495.664C478.118 486.409 478.941 469.153 482.106 463.677C486.714 455.702 498.655 456.718 500.964 463.592C502.155 467.137 504.667 482.203 503.466 489.669C502.846 493.521 498.499 503.89 488.908 495.664Z" fill="#485760"/>
<path id="spot_18" d="M524.838 516.618C517.613 510.239 521.971 490.711 526.844 484.69C532.639 477.53 539.63 479.207 541.94 486.081C543.131 489.626 543.57 499.704 539.233 508.756C537.547 512.274 534.31 524.982 524.838 516.618Z" fill="#485760"/>
<path id="spot_19" d="M437.452 578.917C434.435 578.234 430.695 573.819 429.344 569.344C426.884 561.194 432.482 555.097 438.274 559.617C442.06 562.57 444.632 570.752 443.221 575.347C442.246 578.523 440.494 579.606 437.452 578.917Z" fill="#485760"/>
<path id="eye_spot_R" d="M427.586 737.673C431.238 734.868 438.905 727.189 439.593 722.282C436.863 690.829 432.417 665.713 421.527 628.254C411.145 595.672 386.1 558.946 358.695 543.925C351.314 540.358 359.878 571.237 334.388 583.003C332.658 622.384 342.453 678.638 268.906 680.114C261.076 683.984 260.416 692.285 261.752 699.832C266.171 724.791 280.683 744.297 303.498 755.248C332.107 772.538 387.67 766.74 427.586 737.673Z" fill="#E0E1E1"/>
<path id="eye_spot_L" d="M616.966 674.895C609.657 674.192 604.532 674.044 603.18 674.501C600.591 675.372 599.872 674.849 597.277 670.197C579.89 644.177 562.595 620.724 553.124 576.941C549.138 560.233 544.404 499.329 564.987 475.812C570.694 469.927 583.732 492.741 611.712 495.041C626.858 531.434 671.726 566.416 741.309 542.551C747.58 547.097 752.677 555.198 754.013 562.745C758.432 587.704 746.976 619.071 729.308 637.19C699.205 668.058 658.654 678.913 616.966 674.895Z" fill="#E0E1E1"/>
<path id="spot_20" d="M576.756 485.058C567.42 484.383 561.869 476.178 558.037 468.815C553.973 461.006 555.351 448.194 566.664 453.11C574.764 456.629 586.348 467.363 586.631 478.104C586.786 483.956 582.153 485.447 576.756 485.058Z" fill="#485760"/>
<path id="spot_21" d="M333.014 560.457C316.025 548.304 308.807 528.569 311.812 513.282C315.891 492.53 326.961 492.496 338.273 497.412C346.372 500.931 357.556 520.771 356.952 546.461C356.665 558.681 345.549 569.423 333.014 560.457Z" fill="#485760"/>
</g>
<g id="cap">
<path id="cap_top" d="M405.82 163.888C415.821 162.117 425.241 163.328 432.355 166.563C439.484 169.805 444.021 174.916 445.079 180.892C446.137 186.868 443.63 193.226 438.048 198.718C432.477 204.199 424.045 208.57 414.044 210.34C404.043 212.111 394.625 210.901 387.511 207.666C380.382 204.424 375.844 199.313 374.786 193.337C373.728 187.361 376.235 181.003 381.818 175.51C387.389 170.029 395.819 165.659 405.82 163.888Z" fill="#5D7A9C" stroke="black" stroke-width="6"/>
<path id="cap_side" d="M658.236 221.748C602.349 189.885 487.672 165.29 412.912 182.905C593.93 198.06 634.558 374.243 645.03 378.371C647.214 379.273 678.676 385.48 692.094 389.546C714.434 395.16 732.152 389.518 747.581 385.199C734.076 327.778 699.049 245.017 658.236 221.748Z" fill="#32455D" stroke="black" stroke-width="6"/>
<path id="cap_front" d="M210.945 331.735C193.212 364.817 204.657 494.482 204.657 494.482C215.923 481.712 248.511 451.624 282.497 430.752C315.876 410.252 398.21 373.924 483.421 370.08C550.61 364.932 616.42 371.766 660.29 381.341C654.227 342.797 632.633 279.015 612.606 251.354C587.633 216.863 500.582 183.046 444.978 178.005C433.728 178.932 422.959 180.537 412.911 182.905C325.975 203.388 233.356 289.925 210.945 331.735Z" fill="#32455D" stroke="black" stroke-width="6"/>
<path id="cap_shade" d="M207.636 588.265C227.31 483.776 328.481 472.082 369.108 462.648C484.455 435.863 586.683 485.616 622.339 473.487C651.594 463.535 685.179 410.665 693.469 390.11C556.315 361.106 505.989 362.54 402.678 382.739C273.539 407.989 202.955 494.451 180.472 524.677L180.38 524.801C157.928 554.983 136.151 584.26 145.046 612.072C152.172 634.352 189.742 605.484 207.636 588.265Z" fill="#32455D" stroke="black" stroke-width="6"/>
<path id="shade_inner" d="M145.047 612.072C152.172 634.352 189.742 605.484 207.636 588.265C227.311 483.776 328.481 472.082 369.109 462.648C484.456 435.864 586.683 485.616 622.34 473.487C651.594 463.535 685.179 410.665 693.469 390.11L680.691 387.443C668.366 406.385 636.77 439.383 607.291 447.836C576.653 456.621 531.702 431.218 446.553 434.664C342.915 438.858 268.869 474.862 229.611 499.413C191.855 523.024 168.278 546.357 152.376 566.474C145.379 580.668 140.002 596.3 145.047 612.072Z" fill="#253345" stroke="black" stroke-width="6"/>
<path id="cap_shade_inner_line" d="M263.987 498.883C209.761 525.757 151.588 584.831 159.99 600.136" stroke="black" stroke-width="6" stroke-linecap="round"/>
<path id="cap_highlight_R" d="M213.153 337.394C198.104 365.402 208.595 484.928 208.595 484.928L217.644 475.767C215.723 442.315 212.91 356.111 224.591 336.703C246.174 300.84 328.182 231.215 377.8 205.09C400.289 193.994 456.284 185.285 499.354 193.634C493.816 191.091 467.15 184.168 444.89 182.238C433.64 183.166 422.373 184.951 412.326 187.319C325.389 207.802 235.605 295.606 213.153 337.394Z" fill="#587295"/>
<path id="54" d="M338.991 372.024C338.805 370.973 338.871 348.225 339.084 340.001L339.188 335.971L344.742 334.536C347.797 333.746 352.053 332.787 354.198 332.404L358.099 331.709L358.975 334.036C360.016 336.8 363.254 339.676 366.546 340.761C368.406 341.374 370.578 341.226 376.602 340.08C389.056 337.706 396.606 334.192 401.144 328.658C404.191 324.941 405.086 322.188 404.555 318.176C403.692 311.674 399.711 310.66 377.932 311.399C368.916 311.706 359.54 311.669 357.099 311.318C344.54 309.508 340.105 305.765 338.276 295.435C336.354 284.575 338.389 275.025 344.514 266.174C351.696 255.794 361.114 250.435 382.762 244.404C390.429 242.268 400.982 239.298 406.212 237.801C411.442 236.305 418.918 234.299 422.827 233.346L429.933 231.612L429.796 233.564C429.557 236.948 429.347 248.401 429.385 255.903L429.423 263.124L423.535 264.619C420.297 265.441 416.049 266.605 414.094 267.206C410.91 268.183 410.515 268.16 410.294 266.989C409.711 263.907 406.391 260.34 403.109 259.267C400.139 258.298 398.959 258.355 390.497 259.882C379.204 261.921 372.156 264.661 368.521 268.426C360.848 276.373 361.807 285.353 370.492 286.91C372.211 287.219 380.141 287.134 388.114 286.724C420.89 285.033 428.297 287.799 430.889 302.689C432.82 313.775 430.666 322.752 423.716 332.602C414.616 345.496 401.115 352.643 372.003 359.973C363.954 362 362.522 362.551 361.827 363.885C361.185 365.118 359.144 366.074 351.928 368.513C346.93 370.204 342.017 371.929 341.012 372.35C339.621 372.929 339.138 372.852 338.991 372.024Z" fill="#FBFAF8" stroke="#FBFAF8"/>
</g>
<g id="nose_and_mouth">
<path id="chin" d="M667.001 734.5C706.255 801.062 695 871.5 586.988 922.853C525 933.5 453 897.5 434.5 846.5C426.872 825.469 437.888 756.502 467.091 735.963C478.673 727.818 489.535 740.973 517.371 731.535C543.979 717.685 546.557 708.856 561.025 706.405C601.749 707.102 653.767 712.06 667.001 734.5Z" fill="#E0DFDF"/>
<path id="shadow" d="M677 840.5C661.428 885.222 611.09 917.909 586.096 922.786C555.05 931.909 492.886 918.144 465 891C489.745 897.833 528.182 919.752 583.138 906.071C619.475 897.026 660.271 853.663 677 840.5Z" fill="#B0B0B1"/>
<path id="chin_2" d="M686.5 821.5C680 882.5 612.853 926.001 584.339 931.047C555.189 938.626 491 937.5 466.5 889.5C485.5 907.5 530.519 935.031 585.457 921.276C626.5 911 668.5 863 686.5 821.5Z" fill="black"/>
<g id="nose">
<path id="Vector 1" d="M457.103 750.337C451.275 741.726 454.105 718.818 456.334 708.376C456.334 708.376 457.507 735.333 461.36 742.029C462.63 740.903 462.573 734.254 476.831 733.175C489.764 732.197 496.084 739.84 518.83 731.137C534.84 725.012 544.566 713.862 553.821 709.065C564.275 703.648 570.298 706.707 572.982 708.781C575.396 702.674 569.754 692.621 565.593 679.498C569.169 684.522 583.735 707.584 579.502 717.162C575.578 726.041 552.344 774.01 533.022 779.15C514.525 784.071 463.193 759.333 457.103 750.337Z" fill="black" stroke="black"/>
<path id="Vector 2" d="M552.325 716.063C549 719.287 528.327 733.257 517.316 737.727C511.942 738.869 497.783 740.656 484.14 738.671C467.087 736.189 463.213 740.197 462.968 747.23C462.723 754.263 472.061 756.947 477.556 753.772C489.697 746.757 506.376 760.23 507.835 763.317C509.539 766.924 509.397 769.378 511.274 771.566C512.776 773.317 521.676 774.556 528.19 773.27C536.841 771.562 540.74 767.057 546.929 760.673C546.489 757.543 546.239 756.695 545.209 751.076C543.312 740.725 551.845 728.088 560.063 727.412C567.186 726.826 575.779 722.339 572.095 713.824C568.412 705.31 555.651 712.839 552.325 716.063Z" fill="#C2A4A3" stroke="black"/>
<path id="Vector 4" d="M544.858 791.616C533.624 776.063 521.36 748.684 521.36 748.684C521.36 748.684 528.643 776.406 536.523 793.746C542.601 807.119 547.793 814.15 547.793 814.15L559.134 805.909C559.134 805.909 553.05 802.958 544.858 791.616Z" fill="black" stroke="black"/>
<path id="Vector 3" d="M499.032 661.853C481.37 667.594 471.765 679.286 469.171 684.415C475.868 680.039 486.622 670.963 499.646 666.648C510.232 663.14 527.674 662.31 536.495 662.461C531.366 659.867 516.693 656.113 499.032 661.853Z" fill="black"/>
</g>
<g id="mouth">
<path id="mouth_2" d="M666.69 831.714C655.225 868.025 573.892 840.186 538.411 854.106C497.64 870.101 480.321 885.869 465.811 871.657C450.279 856.443 453.803 847.448 450.248 838.975C459.425 820.005 516.905 821.522 533.498 807.506C576.151 771.476 635.862 742.226 653.042 751.828C661.231 765.141 676.806 799.671 666.69 831.714Z" fill="white"/>
<path id="mouth_outline" d="M666.69 831.713C655.226 868.025 599.5 836.5 538.412 854.105C496.626 866.148 483.51 885.213 469 871C453.468 855.786 452.055 846.473 448.5 838C457.677 819.03 508.5 825.5 542.999 800.5C587.882 767.975 624.957 741.672 649 752.5C657.19 765.813 676.807 799.67 666.69 831.713Z" stroke="black" stroke-width="12"/>
<path id="teeth" d="M501.54 835.649C499.886 835.74 498.617 837.154 498.708 838.808C498.798 840.463 500.212 841.731 501.866 841.641L501.703 838.645L501.54 835.649ZM544.359 830.769L545.471 833.555L544.359 830.769ZM587.016 795.02L589.32 793.1L585.988 789.099L584.198 793.989L587.016 795.02ZM616.547 824.709L614.369 826.773L618.651 831.291L619.518 825.127L616.547 824.709ZM623.109 778.054L625.598 776.38L621.229 769.885L620.139 777.636L623.109 778.054ZM645.531 811.379L643.042 813.054L647.746 820.045L648.519 811.655L645.531 811.379ZM476 831.374L478.298 829.446L472.895 823.008L473 831.412L476 831.374ZM501.703 838.645L501.866 841.641C513.089 841.029 534.076 838.1 545.471 833.555L544.359 830.769L543.248 827.982C532.768 832.163 512.558 835.049 501.54 835.649L501.703 838.645ZM544.359 830.769L545.471 833.555C558.96 828.175 581.107 819.899 589.833 796.051L587.016 795.02L584.198 793.989C576.518 814.979 557.102 822.456 543.248 827.982L544.359 830.769ZM587.016 795.02L584.711 796.94C588.118 801.03 592.757 805.54 597.858 810.438C603.002 815.378 608.686 820.776 614.369 826.773L616.547 824.709L618.724 822.646C612.923 816.524 607.123 811.016 602.013 806.11C596.86 801.162 592.476 796.886 589.32 793.1L587.016 795.02ZM616.547 824.709L619.518 825.127L626.08 778.472L623.109 778.054L620.139 777.636L613.576 824.292L616.547 824.709ZM623.109 778.054L620.62 779.729L643.042 813.054L645.531 811.379L648.02 809.705L625.598 776.38L623.109 778.054ZM645.531 811.379L648.519 811.655L653.987 752.275L651 752L648.013 751.725L642.544 811.104L645.531 811.379ZM504.984 865.911L507.282 863.983L478.298 829.446L476 831.374L473.702 833.303L502.686 867.84L504.984 865.911ZM476 831.374L473 831.412L473.547 875.038L476.547 875L479.547 874.962L479 831.337L476 831.374Z" fill="black"/>
<path id="mouth_line" d="M676 749C671.638 733.959 659.545 726.793 641 732" stroke="black" stroke-width="6" stroke-linecap="round"/>
<path id="mouth_line_2" d="M425.155 812.473C433.964 826.886 445.856 830.179 466 821.632L444.735 843C439.886 841.575 430.523 836.651 420.674 825.905C410.826 815.16 411.536 793.751 416.759 785C415.08 788.256 418.438 801.484 425.155 812.473Z" fill="black"/>
</g>
<g id="wiskers">
<path id="Vector 5" d="M764.485 749.209C717.26 741.43 639.261 751.412 606.165 757.376L607.184 761.483C649.211 753.908 687.754 749.06 764.485 749.209Z" fill="black"/>
<path id="Vector 6" d="M781.068 702.356C723.703 701.387 642.834 729.202 610.552 739.521L611.571 743.628C651.286 732.075 702.959 712.249 781.068 702.356Z" fill="black"/>
<path id="Vector 7" d="M764.954 657.273C701.897 663.427 627.428 710.904 600.496 733.238L604.027 736.03C639.251 711.953 685.185 678.991 764.954 657.273Z" fill="black"/>
<path id="Vector 8" d="M345.85 875.577C379.415 846.423 445.994 818.138 475.088 807.64L476.286 811.697C439.34 825.026 406.482 839.076 345.85 875.577Z" fill="black"/>
<path id="Vector 9" d="M317.227 842.629C358.654 814.964 431.464 801.21 460.142 795.04L461.426 799.069C426.709 807.648 379.172 814.66 317.227 842.629Z" fill="black"/>
<path id="Vector 10" d="M283.696 805.233C343.113 777.102 434.283 778.224 469.952 783.042L468.263 787.296C424.293 785.381 366.137 781.547 283.696 805.233Z" fill="black"/>
</g>
</g>
<path id="cap_shade_highlight" d="M238.788 465.7C257.872 450.01 301.133 422.048 337.6 406.614C328.329 412.844 306.427 428.589 293.733 438.018C281.039 447.447 248.533 477.32 234.033 491.757C213.921 504.04 198.92 514.339 182.686 528.539C194.476 514.081 211.884 487.819 238.788 465.7Z" fill="#587295"/>
<path id="cap_shadow_L" d="M705.154 348.679C704.414 374.389 683.108 380.724 672.633 380.374C679.28 382.627 693.557 385.629 705.365 387.231C717.637 388.896 735.149 383.973 742.589 382.411C742.589 382.411 739.052 364.444 727.961 334.96C704.225 271.858 683.622 251.141 677.909 248.761C692.113 270.87 706.079 316.541 705.154 348.679Z" fill="black" fill-opacity="0.26"/>
<path id="Vector 11" d="M535.676 197.333C531.099 195.134 505.289 186.093 489.081 181.765C545.456 186.049 582.317 194.984 620.39 209.424C653.892 222.13 667.134 228.506 685.976 254.074C657.884 234.063 641.085 228.008 623.312 221.065C596.526 210.602 540.835 198.383 535.676 197.333Z" fill="#587295"/>
<path id="cap_head_shadow" d="M729.959 393.582L744.059 407.281C730.674 410.255 712.107 413.845 698.445 413.542C674.771 461.736 666.006 473.721 633.724 491.231C590.142 514.87 445.529 478.733 337.733 523.222C264.31 553.524 219.043 594.94 213.847 622.604C213.839 622.647 213.831 622.689 213.823 622.731C213.831 622.689 213.839 622.646 213.847 622.604C217.62 602.061 207.63 542.841 261.342 506.807C293.398 485.301 348.249 467.038 403.763 460.79C447.995 455.812 489.325 460.145 519.105 465.365C561.457 472.79 600.421 483.982 623.47 477.481C648.343 470.465 682.913 421.828 696.182 394.782C711.631 397.491 729.959 393.582 729.959 393.582Z" fill="black" fill-opacity="0.16"/>
<g id="eye_R">
<path id="outer" d="M269.077 692.897C284.182 732.65 311.726 744.872 335.251 749.153C396.495 760.299 419.965 713.468 437.157 726.76C428.152 620.969 366.088 567.094 313.604 587.354C278.57 600.04 251.139 643.709 269.077 692.897Z" fill="#020201"/>
<path id="white" d="M283.909 690.077C294.911 727.127 311.055 739.617 344.903 743.498C356.425 744.818 411.961 739.003 422.957 711.648C437.755 674.831 384.283 569.715 313.924 607.486C287.223 621.821 274.877 659.663 283.909 690.077Z" fill="white"/>
<mask id="mask0_123_2" style="mask-type:alpha" maskUnits="userSpaceOnUse" x="280" y="599" width="146" height="145">
<path id="white_mask" d="M283.909 690.077C294.911 727.127 311.055 739.617 344.903 743.498C356.425 744.818 411.961 739.003 422.957 711.648C437.755 674.831 384.283 569.715 313.924 607.486C287.223 621.821 274.877 659.663 283.909 690.077Z" fill="white"/>
</mask>
<g mask="url(#mask0_123_2)">
<g id="eye_ball">
<ellipse id="cyan" cx="67.7816" cy="69.8848" rx="67.7816" ry="69.8848" transform="matrix(0.984686 -0.174336 -0.174336 -0.984686 311.383 747.437)" fill="#1097AF"/>
<path id="cyan_2" d="M427.448 637.387C439.325 668.379 428.929 712.25 385.046 730.391C359.578 740.919 317.185 719.139 315.755 700.532C328.896 674.457 371.293 650.167 397.63 641.545C405.234 639.055 424.487 629.662 427.448 637.387Z" fill="#34DCED"/>
<ellipse id="black" cx="50.4837" cy="53.1998" rx="50.4837" ry="53.1998" transform="matrix(0.984686 -0.174336 -0.174336 -0.984686 328.884 726.371)" fill="black"/>
<ellipse id="highlight_upper" cx="8.30902" cy="9.18368" rx="8.30902" ry="9.18368" transform="matrix(0.984686 -0.174336 -0.174336 -0.984686 390.068 701.482)" fill="#F0EFEF"/>
<ellipse id="highlight_lower" cx="15.7428" cy="15.7164" rx="15.7428" ry="15.7164" transform="matrix(0.984686 -0.174336 -0.174336 -0.984686 319.894 666.331)" fill="#F0EFEF"/>
</g>
<path id="eye_ball_shadow" d="M306.43 611.587C334.441 587.635 370.991 603.143 385.414 614.446C385.414 614.446 395.414 622.351 404.375 636.533C397.14 638.172 396.243 641.198 378.211 636.506C312.708 619.463 286.047 653.66 281.22 671.596C280.764 660.926 277.657 636.191 306.43 611.587Z" fill="black" fill-opacity="0.28"/>
</g>
</g>
<g id="eye_L">
<path id="outer_2" d="M738.107 551.92C745.273 592.395 727.058 623.669 707.776 640.25C670.631 672.19 612.36 653.444 604.024 675C549.443 572.641 578.183 496.218 637.101 485.786C676.94 475.034 727.377 497.28 738.107 551.92Z" fill="#020201"/>
<path id="white_2" d="M725.752 556.75C736.192 596.506 722.495 616.87 693.82 639.022C684.059 646.562 633.011 666.124 613.475 653.775C559.928 619.926 576.416 516.081 637.111 503.751C677.549 495.535 715.041 515.961 725.752 556.75Z" fill="white"/>
<mask id="mask1_123_2" style="mask-type:alpha" maskUnits="userSpaceOnUse" x="581" y="501" width="149" height="157">
<path id="white_mask_2" d="M725.752 556.75C736.192 596.506 722.495 616.87 693.82 639.022C684.059 646.562 633.011 666.124 613.475 653.775C559.928 619.926 576.416 516.081 637.111 503.751C677.549 495.535 715.041 515.961 725.752 556.75Z" fill="white"/>
</mask>
<g mask="url(#mask1_123_2)">
<g id="eye_ball_2">
<ellipse id="cyan_3" cx="636.754" cy="581.084" rx="70.0008" ry="70.0034" transform="rotate(-10.04 636.754 581.084)" fill="#1097AF"/>
<path id="cyan_4" d="M698.716 568.922C710.594 599.915 687.083 640.156 652.37 646.302C625.233 651.106 595.217 637.916 595.217 616.005C607.795 593.671 655.24 571.493 681.577 562.871C689.181 560.381 695.756 561.198 698.716 568.922Z" fill="#34DCED"/>
<ellipse id="black_2" cx="633.135" cy="580.893" rx="53.8566" ry="53.8586" transform="rotate(-10.04 633.135 580.893)" fill="black"/>
<ellipse id="highlight_upper_2" cx="654.122" cy="546.738" rx="15.5801" ry="15.5807" transform="rotate(-10.04 654.122 546.738)" fill="#F0EFEF"/>
<ellipse id="highlight_lower_2" cx="625.765" cy="618.17" rx="8.99726" ry="8.99726" transform="rotate(-10.04 625.765 618.17)" fill="#F0EFEF"/>
</g>
<path id="eye_ball_shadow_2" d="M617.612 545.044C592.995 558.396 582.278 575.216 575.027 597.759C575.027 597.759 551.913 589.586 546.735 588.05C545.584 572.31 603.015 515.289 626.01 506.949C661.399 494.115 702.124 504.244 719.724 540.967C683.756 514.61 637.841 534.072 617.612 545.044Z" fill="black" fill-opacity="0.28"/>
</g>
</g>
</g>
</g>
</svg>
