<svg width="1024" height="1024" viewBox="0 0 1024 1024" fill="none" xmlns="http://www.w3.org/2000/svg">
<rect width="1024" height="1024" fill="#1E1E1E"/>
<g id="sleep">
<g id="leo">
<g id="ear_R">
<path id="ear_outer_R" d="M111.035 442.511C112.695 542.104 215.973 583.878 232.335 589.452L295.76 416.435C284.32 394.122 272.805 359.179 236.28 339.949C166.211 306.482 109.376 342.918 111.035 442.511Z" fill="#C8C8C8" stroke="black" stroke-width="8"/>
<path id="ear_inner_R" d="M142.593 440.539C146.538 494.778 202.045 542.752 234.269 545.544L259.218 456.856C251.8 442.388 231.759 410.629 210.64 394.188C159.236 354.172 138.946 390.39 142.593 440.539Z" fill="#465560" stroke="black" stroke-width="6"/>
<path id="highlight" opacity="0.55" d="M291.716 382.565C272.686 366.237 232.707 336.553 187.995 333.694C165.639 331.354 139.314 349.455 126.386 379.965C119.887 395.303 113.908 433.256 118.848 455.872C122.747 436.115 117.808 382.565 154.981 353.19C180.102 333.339 211.131 353.97 291.716 382.565Z" fill="#EBECED"/>
<path id="ear_inner_shadow" d="M174.712 410.452C189.359 414.733 228.322 470.821 245.972 498.33C258.961 518.573 187.608 517.995 187.608 517.995C187.608 517.995 233.89 558.042 259.79 534.365C296.115 501.158 269.223 472.526 269.223 472.526C260.353 459.221 229.726 416.359 217.312 405.596C195.337 386.545 185.459 381.202 169.634 381.505C157.017 381.746 149.846 399.909 148.062 408.922C151.349 407.796 160.066 406.17 174.712 410.452Z" fill="black" fill-opacity="0.26"/>
<path id="ear_outer_shadow" d="M213.818 575.238C208.524 574.872 182.782 558.724 169.944 547.491C193.284 548.614 212.169 542.777 212.169 542.777L218.788 545.785C216.582 555.614 214.275 571.762 213.818 575.238Z" fill="black" fill-opacity="0.26"/>
</g>
<path id="ear_hair" d="M285.1 459.572C285.1 459.572 237.062 436.645 199.631 433.606C202.059 440.745 215.225 460.374 232.57 464.105C218.134 462.407 208.392 462.969 192.546 465.445C199.575 472.256 216.643 485.721 228.68 485.085C240.718 484.449 207.415 488.407 197.934 494.946C216.671 497.853 255.076 492.325 255.076 492.325L285.1 459.572Z" fill="black"/>
<g id="ear_L">
<path id="ear_outer_L" d="M909.132 343.393C933.102 440.072 840.417 509.586 826.035 519.174L718.969 368.162C724.295 343.659 728.557 304.242 758.919 276.277C818.045 225.939 885.162 246.714 909.132 343.393Z" fill="#C8C8C8" stroke="black" stroke-width="8"/>
<path id="ear_inner_L" d="M877.891 352.454C888.864 412.807 841.978 466.178 811.551 477.151L764.665 397.844C768.119 381.956 782.892 342.343 799.082 321.03C838.486 269.156 868.896 302.983 877.891 352.454Z" fill="#465560" stroke="black" stroke-width="6"/>
<path id="highlight_2" opacity="0.55" d="M718.969 368.162C724.295 343.659 733.604 309.362 763.966 281.397C792.369 257.216 819.911 251.113 843.611 260.753C894.733 283.021 911.789 356.12 902.042 407.29C902.042 341.094 887.829 281.397 831.229 267.825C772.408 253.721 718.969 368.162 718.969 368.162Z" fill="#EBECED"/>
<path id="ear_inner_shadow_2" d="M836.987 327.086C820.419 337.598 796.293 400.908 778.642 428.417C765.653 448.66 814.288 472.691 814.288 472.691C814.288 472.691 792.333 494.805 766.433 471.128C730.108 437.921 749.059 410.366 749.059 410.366C757.929 397.061 791.41 337.433 801.546 324.501C808.935 315.073 823.685 299.229 839.51 299.531C852.126 299.772 863.715 317.016 865.499 326.03C862.213 324.903 849.872 318.911 836.987 327.086Z" fill="black" fill-opacity="0.26"/>
<path id="ear_outer_shadow_2" d="M838.393 501.809C843.687 501.444 867.443 474.672 877.635 460.658C853.429 466.009 841.988 461.793 841.988 461.793L826.77 473.81C828.977 483.639 837.936 498.333 838.393 501.809Z" fill="black" fill-opacity="0.26"/>
</g>
<path id="ear_hair_2" d="M815.953 359.632C789.485 377.601 760.834 381.794 760.834 381.794L767.526 421.896C767.526 421.896 812.648 427.1 826.534 418.877C805.342 417.24 799.302 418.068 795.198 414.978C807.19 413.748 821.974 397.81 827.868 389.995C809.751 392.975 806.606 395.77 783.668 396.145C802.885 392.301 814.544 367.703 815.953 359.632Z" fill="black"/>
<path id="head" d="M897.318 654.397C880.873 633.975 860.45 593.659 850.953 552.238C836.221 501.841 812.961 451.445 784.274 412.678C721.336 327.626 605.173 286.299 469.49 308.784C333.807 331.269 268.82 434.394 244.019 484.658C216.903 539.22 217.525 601.847 212.371 651.148C207.709 695.747 196.841 721.639 192.325 732.313L207.686 728.659C207.686 728.659 202.453 757.702 205.045 765.05C207.449 764.522 213.644 761.964 218.806 761.103C223.303 776.434 276.25 816.704 320.883 835.525C365.515 854.346 419.289 866.176 453.167 872.629C453.167 872.629 506.004 880.125 543.525 876.013C586.178 871.339 632.772 857.572 632.772 857.572C637.97 856.855 672.585 843.504 757.785 805.576C815.883 779.713 865.361 725.363 878.519 685.496L894.113 687.109L883.26 655.724C887.151 655.778 892.174 654.912 897.318 654.397Z" fill="#C8C8C8" stroke="black" stroke-width="8"/>
<path id="head_shadow" d="M755.297 800.788C816.796 774.232 873.753 704.346 870.828 684.047C824.37 734.424 740.968 798.794 640.215 837.416C628.99 841.719 591.265 853.948 541.88 858.876C497.746 863.281 451.149 852.292 437.029 851.41C370.872 847.275 286.167 815.465 224.036 758.931C232.83 778.001 279.82 812.367 324.453 831.188C369.085 850.009 420.912 860.726 454.789 867.179C454.789 867.179 509.545 873.223 535.612 870.745C571.566 867.328 631.25 852.503 631.25 852.503C636.448 851.786 669.678 837.76 755.297 800.788Z" fill="#B0B0B1"/>
<path id="head_shadow_L" d="M887.385 648.192C875.192 632.149 857.601 607.333 846.823 566.226C833.026 513.604 814.546 463.169 785.858 424.403C800.997 448.726 826.999 530.552 831.865 559.307C836.114 584.413 868.559 650.849 885.139 682.05C888.583 683.071 886.542 679.881 886.542 679.881C886.542 679.881 870.722 648.88 871.851 644.839C875.742 644.893 882.242 648.707 887.385 648.192Z" fill="#EBECED"/>
<path id="head_shadow_R" d="M209.245 750.98C208.385 755.147 207.502 759.429 210.928 758.206C214.768 754.503 226.131 719.971 221.373 717.636C220.038 716.98 217.103 713.904 213.025 715.103C223.698 689.701 226.033 655.744 228.069 617.695C228.469 606.096 227.327 590.496 229.802 545.218C220.186 594.838 222.508 612.727 217.354 662.028C212.692 706.626 204.815 714.895 200.299 725.569C200.299 725.569 211.852 718.961 214.78 720.158C217.531 721.284 211.053 741.075 209.302 750.703L209.245 750.98Z" fill="#EBECE8"/>
<g id="spots">
<path id="spot" d="M805.193 621.99C817.746 632.241 816.23 646.833 803.982 663.714C789.12 684.197 753.45 689.577 747.81 679.291C741.199 667.232 762.756 659.025 769.773 643.42C778.327 624.399 787.334 607.405 805.193 621.99Z" fill="#485760"/>
<path id="spot_2" d="M252.699 685.959C240.147 696.21 250.253 719.749 259.2 726.591C280.615 742.968 306.98 741.351 312.619 731.065C319.23 719.006 300.514 715.013 289.725 705.013C274.429 690.836 270.558 671.374 252.699 685.959Z" fill="#485760"/>
<path id="spot_3" d="M852.603 668.758C862.405 675.293 856.028 703.673 839.072 720.422C818.897 740.35 790.112 745.517 783.716 734.692C775.765 721.236 802.373 713.537 816.191 703.447C831.691 692.13 837.103 658.425 852.603 668.758Z" fill="#485760"/>
<path id="spot_4" d="M237.516 743.916C227.713 750.45 242.158 778.736 258.924 790.343C282.333 806.549 305.35 799.37 308.961 793.18C316.837 779.679 294.189 775.493 277.752 770.74C256.344 764.55 253.015 733.583 237.516 743.916Z" fill="#485760"/>
<path id="spot_5" d="M334.235 788.076C330.273 799.171 339.58 801.716 351.124 804.602C354.029 805.328 363.925 803.059 367.467 799.517C372.552 794.432 369.283 788.803 365.833 786.805C360.609 783.781 336.959 780.449 334.235 788.076Z" fill="#485760"/>
<path id="spot_6" d="M737.569 744.46C745.09 752.53 733.35 760.785 724.913 764.087C712.796 768.828 704.243 767.079 700.7 763.536C695.615 758.452 702.202 750.126 705.653 748.128C710.877 745.104 732.048 738.534 737.569 744.46Z" fill="#485760"/>
<path id="spot_7" d="M351.378 726.811C339.603 726.436 342.298 744.641 349.727 749.264C361.12 756.353 379.506 754.171 383.573 751.245C406.522 734.735 399.423 728.131 395.625 725.159C390.872 721.439 377.299 727.636 351.378 726.811Z" fill="#485760"/>
<path id="spot_8" d="M693.758 688.951C705.533 688.576 702.981 707.613 696.337 713.308C686.308 721.904 661.943 721.624 657.652 719.039C632.435 703.852 643.929 692.463 648.74 692.779C677.711 694.682 667.838 689.777 693.758 688.951Z" fill="#485760"/>
<path id="spot_9" d="M754.26 452.727C765.211 446.542 777.62 456.849 784.949 474.255C795.953 500.39 789.43 516.796 780.826 515.479C775.257 514.626 769.836 503.063 761.144 488.325C756.891 481.114 738.039 461.887 754.26 452.727Z" fill="#485760"/>
<path id="spot_10" d="M815.017 559.388C825.968 553.203 836.539 573.432 838.727 582.187C842.882 598.805 843.319 618.158 834.715 616.841C829.146 615.988 823.028 612.163 814.834 597.143C813.74 595.136 798.796 568.548 815.017 559.388Z" fill="#485760"/>
<path id="spot_11" d="M420.04 518.919C414.849 517.357 406.929 507.58 404.438 499.662C401.798 491.264 405.389 478.889 415.672 485.701C423.034 490.578 430.026 504.065 428.946 512.707C428.22 518.516 425.222 520.478 420.04 518.919Z" fill="#485760"/>
<path id="spot_12" d="M409.076 466.423C403.885 464.861 396.398 455.403 394.914 447.236C393.489 439.389 396.662 426.87 406.944 433.683C414.306 438.561 418.684 451.385 417.603 460.027C416.877 465.836 414.258 467.982 409.076 466.423Z" fill="#485760"/>
<path id="spot_13" d="M440.943 485.576C435.483 480.813 432.276 466.436 432.927 458.161C433.586 449.778 439.257 440.311 449.539 447.125C456.902 452.002 456.892 468.453 455.812 477.096C453.953 489.177 446.703 490.601 440.943 485.576Z" fill="#485760"/>
<path id="spot_14" d="M247.091 577.621C233.411 570.782 240.639 535.198 246.578 525.467C257.596 507.415 270.613 516.386 270.689 523.586C270.86 539.83 263.678 541.882 261.284 553.853C259.389 563.329 256.943 582.547 247.091 577.621Z" fill="#485760"/>
<path id="spot_15" d="M228.82 680.627C225.91 679.134 224.563 676.512 223.846 670.96C222.201 658.212 223.603 640.713 226.772 634.473C228.719 630.636 233.359 627.759 236.436 628.48C241.207 629.595 244.583 635.526 245.39 644.211C246.533 656.512 240.926 675.997 235.107 679.935C232.451 681.733 231.23 681.866 228.82 680.627Z" fill="#485760"/>
<path id="spot_16" d="M518.363 526.734C517.657 523.461 518.562 517.149 520.633 514.687C524.574 510.004 531.431 513.408 532.507 520.579C533.061 524.277 531.495 530.419 529.278 533.237C524.55 539.247 519.335 531.247 518.363 526.734Z" fill="#485760"/>
<path id="spot_17" d="M522.208 470.18C513.196 459.186 517.015 442.338 521.086 437.497C527.014 430.448 538.595 433.53 539.67 440.701C540.225 444.4 540.072 459.673 537.588 466.816C536.306 470.501 530.218 479.953 522.208 470.18Z" fill="#485760"/>
<path id="spot_18" d="M553.935 497.078C547.933 489.537 555.628 471.067 561.477 465.988C568.431 459.949 575.023 462.818 576.099 469.99C576.654 473.688 575.329 483.688 569.481 491.845C567.207 495.016 561.805 506.965 553.935 497.078Z" fill="#485760"/>
<path id="spot_19" d="M457.023 543.188C454.171 541.989 451.257 536.99 450.707 532.348C449.706 523.894 456.281 518.867 461.197 524.327C464.41 527.895 465.516 536.4 463.326 540.678C461.812 543.636 459.898 544.397 457.023 543.188Z" fill="#485760"/>
<path id="eye_spot_R" d="M419.63 697.793C423.715 695.669 432.603 689.444 434.137 684.731C436.932 653.285 436.932 627.777 432.739 588.993C428.197 555.101 417.368 551.568 393 532C386.354 527.2 389.404 559.1 362.252 566.242C356 591 342 605.5 273.409 613.452C265.023 615.898 262.927 623.957 262.927 631.621C262.927 656.968 273.816 678.705 294.374 693.467C319.531 715.479 375.255 719.457 419.63 697.793Z" fill="#E0E1E1"/>
<path id="eye_spot_L" d="M617.061 668.992C609.987 667.025 604.966 665.986 603.555 666.2C600.853 666.607 600.237 665.967 598.492 660.934C585.907 632.281 572.966 606.172 571.273 561.408C570.26 544.261 578.132 529.068 602.5 509.5C609.146 504.7 618.007 529.438 645.159 536.58C658 563 689.898 571.721 762.578 560.352C767.961 565.921 771.567 574.788 771.567 582.452C771.567 607.799 754.818 636.688 734.261 651.449C699.236 676.597 657.412 680.217 617.061 668.992Z" fill="#E0E1E1"/>
<path id="spot_20" d="M610.563 475.052C601.487 472.76 597.452 463.713 594.962 455.794C592.321 447.397 595.912 435.021 606.195 441.834C613.558 446.711 623.094 459.3 621.5 469.927C620.632 475.716 615.81 476.376 610.563 475.052Z" fill="#485760"/>
<path id="spot_21" d="M357.399 506.804C342.788 491.875 339.12 471.184 344.745 456.655C352.379 436.931 363.286 438.828 373.569 445.64C380.931 450.518 388.484 472.004 383.411 497.196C380.998 509.178 368.179 517.818 357.399 506.804Z" fill="#485760"/>
</g>
<g id="cap">
<path id="cap_top" d="M498.231 129C508.388 129 517.452 131.834 523.894 136.26C530.349 140.695 533.926 146.519 533.926 152.588C533.926 158.657 530.348 164.48 523.894 168.915C517.452 173.341 508.388 176.175 498.231 176.175C488.074 176.175 479.01 173.341 472.568 168.915C466.114 164.48 462.536 158.657 462.536 152.588C462.536 146.519 466.113 140.695 472.568 136.26C479.01 131.834 488.074 129 498.231 129Z" fill="#5D7A9C" stroke="black" stroke-width="6"/>
<path id="cap_side" d="M736.703 229.979C687.226 188.86 578.588 144.65 501.899 148.962C677.509 195.443 686.801 376.011 696.393 381.902C698.387 383.17 728.286 394.767 740.79 401.11C761.81 410.533 780.241 408.066 796.187 406.503C792.899 347.607 772.836 260.007 736.703 229.979Z" fill="#32455D" stroke="black" stroke-width="6"/>
<path id="cap_front" d="M277.071 260.303C253.841 289.787 242.505 419.461 242.505 419.461C255.825 408.851 293.161 384.905 330.267 370.277C366.71 355.911 454.12 334.493 538.699 345.563C605.759 352.208 669.372 370.409 710.903 387.486C711.652 348.476 701.508 281.906 686.609 251.177C668.032 212.861 588.206 164.385 534.33 149.727C523.09 148.679 512.206 148.382 501.899 148.962C412.719 153.975 306.429 223.041 277.071 260.303Z" fill="#32455D" stroke="black" stroke-width="6"/>
<path id="cap_shade" d="M229.088 512.328C266.679 412.869 368.342 418.991 409.994 416.785C528.248 410.52 620.241 477.332 657.467 471.605C688.009 466.906 730.299 420.7 742.046 401.905C612.045 349.434 562.237 342.073 456.982 343.952C325.414 346.302 240.835 419.134 213.425 444.978L213.313 445.084C185.942 470.89 159.393 495.922 163.304 524.858C166.436 548.039 208.465 526.164 229.088 512.328Z" fill="#32455D" stroke="black" stroke-width="6"/>
<path id="shade_inner" d="M163.304 524.858C166.437 548.04 208.465 526.164 229.088 512.328C266.679 412.869 368.343 418.992 409.994 416.785C528.249 410.52 620.241 477.332 657.467 471.605C688.01 466.906 730.299 420.7 742.047 401.905L729.928 397.051C714.489 413.555 677.623 440.539 647.121 443.723C615.419 447.033 575.584 414.182 491.135 402.73C388.349 388.792 309.156 411.336 266.218 428.667C224.922 445.335 197.637 464.2 178.472 481.236C169.106 493.994 161.087 508.449 163.304 524.858Z" fill="#253345" stroke="black" stroke-width="6"/>
<path id="cap_shade_inner_line" d="M300.161 434.138C242.078 451.147 174.494 499.175 180.099 515.711" stroke="black" stroke-width="6" stroke-linecap="round"/>
<path id="cap_highlight_R" d="M278.257 266.26C258.555 291.215 248.048 410.74 248.048 410.74L258.555 403.297C262.496 370.023 274.755 284.648 289.641 267.573C317.146 236.023 410.041 181.761 463.455 164.686C487.535 157.681 544.193 158.867 585.15 174.596C580.139 171.127 555.088 159.661 533.505 153.88C522.264 152.832 510.859 152.626 500.552 153.206C411.372 158.22 307.652 229.026 278.257 266.26Z" fill="#587295"/>
<path id="54" d="M396.136 322.298C396.136 321.231 400.166 298.843 401.809 290.782L402.615 286.831L408.335 286.386C411.48 286.142 415.838 285.939 418.018 285.936L421.98 285.932L422.436 288.376C422.98 291.279 425.667 294.676 428.72 296.317C430.444 297.245 432.609 297.479 438.741 297.4C451.419 297.234 459.466 295.09 464.899 290.431C468.548 287.303 469.91 284.748 470.085 280.705C470.369 274.151 466.627 272.459 445.051 269.39C436.119 268.12 426.893 266.449 424.55 265.678C412.499 261.706 408.784 257.248 408.784 246.757C408.784 235.728 412.454 226.679 420.028 219.032C428.91 210.063 439.119 206.428 461.487 204.263C469.409 203.497 480.319 202.411 485.73 201.85C491.141 201.288 498.853 200.616 502.868 200.359L510.167 199.89L509.692 201.789C508.867 205.079 506.664 216.32 505.393 223.714L504.172 230.83L498.113 231.277C494.781 231.522 490.395 231.927 488.365 232.178C485.06 232.585 484.675 232.493 484.661 231.302C484.624 228.166 481.976 224.074 478.932 222.446C476.176 220.973 475.004 220.824 466.406 220.852C454.929 220.891 447.512 222.361 443.276 225.434C434.335 231.922 433.713 240.931 441.994 243.979C443.633 244.583 451.457 245.881 459.379 246.868C491.949 250.917 498.761 254.932 498.718 270.046C498.687 281.299 495 289.762 486.439 298.25C475.23 309.36 460.689 314.044 430.744 316.187C422.465 316.779 420.958 317.072 420.042 318.265C419.194 319.367 417.017 319.953 409.487 321.096C404.27 321.89 399.132 322.732 398.068 322.971C396.598 323.299 396.136 323.138 396.136 322.298Z" fill="#FBFAF8" stroke="#FBFAF8"/>
</g>
<g id="nose_and_mouth">
<path id="chin" d="M643.378 766.78C682.947 840.265 596.085 889.336 543.91 889.668C502.701 898.973 417.977 864.289 417.977 809.882C417.977 774.675 426.509 718.161 458.845 703.025C471.668 697.023 480.072 711.87 509.126 707.427C537.741 698.426 541.819 690.181 556.492 690.289C596.471 698.072 625.871 734.267 643.378 766.78Z" fill="#E0DFDF"/>
<path id="shadow" d="M644.12 836.052C620.994 877.376 569.1 891.74 543.639 892.186C511.478 895.76 461.449 885.039 438.72 853.451C461.896 864.492 487.14 879.106 543.639 875.212C580.996 872.637 625.353 846.099 644.12 836.052Z" fill="#B0B0B1"/>
<path id="chin_2" d="M643.318 837.399C624.209 885.045 568.829 897.275 539.873 897.275C509.847 899.658 454.09 887.066 438.72 853.451C456.046 866.7 486.173 891.707 542.675 887.848C594.908 884.281 615.291 861.859 643.318 837.399Z" fill="black"/>
<path id="mouth" d="M551.471 793.206C551.471 798.816 536.141 804.329 524.591 805.708C514.12 806.959 498.647 802.879 498.647 797.269C498.647 791.659 508.963 787.534 523.497 785.86C538.422 784.141 551.471 787.595 551.471 793.206Z" fill="#B2B2B3"/>
<g id="nose">
<path id="Vector 1" d="M446.506 715.438C442.267 705.944 449.046 683.88 453.061 673.985C453.061 673.985 449.518 700.735 452.145 708C453.592 707.112 454.694 700.554 468.922 701.977C481.827 703.268 486.719 711.895 510.634 707.289C527.465 704.048 538.987 694.763 548.936 691.653C560.173 688.14 565.571 692.202 567.852 694.712C571.294 689.119 567.49 678.237 565.68 664.589C568.326 670.16 578.649 695.407 572.812 704.101C567.401 712.16 536.163 755.346 516.242 757.04C497.17 758.662 450.935 725.358 446.506 715.438Z" fill="black" stroke="black"/>
<path id="Vector 2" d="M546.243 698.283C542.407 700.878 519.616 711.032 507.995 713.514C502.504 713.702 488.25 712.995 475.162 708.663C458.802 703.247 454.289 706.519 452.823 713.401C451.356 720.284 460.082 724.554 466.047 722.385C479.225 717.593 493.301 733.766 494.2 737.061C495.249 740.909 494.681 743.301 496.148 745.783C497.322 747.769 505.87 750.54 512.508 750.409C521.324 750.234 525.949 746.478 533.155 741.27C533.268 738.111 533.169 737.232 533.134 731.52C533.07 720.997 543.674 710.04 551.885 710.806C559.001 711.471 568.245 708.55 566.101 699.524C563.957 690.498 550.079 695.688 546.243 698.283Z" fill="#C2A4A3" stroke="black"/>
<path id="Vector 4" d="M510.067 725.008L523.796 772.18C532.207 778.335 547.5 772 578.5 778.5L578.608 778.523C598.754 782.747 607.837 784.651 616 791C625 798 623.5 798.5 622.5 804C621.45 809.773 616 809.5 613 809L617 800C603 792.5 598 791.5 577 789C546.213 785.335 555.5 785 526.612 791.189C497.687 797.386 495.5 796.5 478 812.5C472.625 817.414 471.337 824.596 470.808 828.773L478.5 835C467.5 838.5 462.999 834 463.499 829.5C463.89 825.986 460.5 818.5 483.313 796.469C492.117 787.967 511.145 779.92 515.222 774.032L510.067 725.008Z" fill="black" stroke="black"/>
<path id="Vector 3" d="M503.212 635.616C484.82 638.191 473.325 648.03 469.877 652.628C477.234 649.486 489.405 642.424 502.982 640.444C514.017 638.834 531.336 641.057 539.996 642.743C535.398 639.294 521.604 633.041 503.212 635.616Z" fill="black"/>
</g>
<g id="wiskers">
<path id="Vector 5" d="M749.261 767.892C704.114 752.003 625.57 748.241 591.941 748.346L592.229 752.567C634.933 752.432 673.73 754.374 749.261 767.892Z" fill="black"/>
<path id="Vector 6" d="M773.756 724.647C717.438 713.696 632.96 726.993 599.373 731.528L599.66 735.75C640.782 731.295 695.118 720.777 773.756 724.647Z" fill="black"/>
<path id="Vector 7" d="M765.745 677.445C702.58 672.516 620.977 706.289 590.565 723.589L593.556 726.954C632.437 709.383 683.411 684.93 765.745 677.445Z" fill="black"/>
<path id="Vector 8" d="M315.013 819.373C353.146 796.515 423.634 780.266 454.112 774.998L454.584 779.201C415.881 785.889 381.078 793.998 315.013 819.373Z" fill="black"/>
<path id="Vector 9" d="M292.57 781.942C338.184 761.92 412.277 761.064 441.591 759.986L442.153 764.177C406.472 766.575 358.441 765.196 292.57 781.942Z" fill="black"/>
<path id="Vector 10" d="M266.068 739.276C329.478 721.929 419.057 738.922 453.341 749.881L450.936 753.776C407.973 744.228 351.375 730.319 266.068 739.276Z" fill="black"/>
</g>
</g>
<path id="cap_shade_highlight" d="M281.132 397.071C302.66 384.948 350.135 364.956 388.735 356.116C378.521 360.634 354.208 372.319 340.064 379.391C325.921 386.463 288.702 410.211 271.907 421.899C249.96 430.489 233.393 438.014 214.932 449.167C229.062 436.986 250.783 414.161 281.132 397.071Z" fill="#587295"/>
<path id="cap_shadow_L" d="M760.743 363.161C755.532 388.348 733.447 390.873 723.193 388.701C729.345 392.079 742.882 397.523 754.229 401.159C766.024 404.938 784.126 403.144 791.726 402.903C791.726 402.903 791.374 384.595 785.593 353.628C773.221 287.355 756.545 263.363 751.334 260.024C761.467 284.27 767.257 331.677 760.743 363.161Z" fill="black" fill-opacity="0.26"/>
<path id="highlight_3" d="M620.272 184.571C616.149 181.608 592.309 168.206 577.104 161.119C631.87 175.165 666.61 190.39 701.585 211.246C732.36 229.598 744.287 238.185 758.384 266.646C734.21 242.044 718.723 233.153 702.432 223.218C677.879 208.246 625.169 186.504 620.272 184.571Z" fill="#587295"/>
<path id="cap_head_shadow" d="M777.374 411.686L788.87 427.633C775.172 428.228 756.262 428.526 742.862 425.846C711.147 469.175 700.426 479.448 665.585 491.062C618.547 506.741 482.444 445.947 368.539 470.961C290.954 488 239.158 520.89 229.218 547.224C229.203 547.264 229.188 547.305 229.173 547.345C229.188 547.304 229.203 547.264 229.218 547.224C236.515 527.653 237.002 467.599 296.176 441.48C331.492 425.892 388.689 417.471 444.444 420.997C488.868 423.806 528.811 435.278 557.226 445.611C597.637 460.305 634.055 478.118 657.885 475.735C683.601 473.163 726.123 431.297 743.904 406.979C758.645 412.339 777.374 411.686 777.374 411.686Z" fill="black" fill-opacity="0.16"/>
<g id="eye_R">
<path id="outer" d="M271 623.5C280 669.5 304.286 684.683 326.705 693C385.071 714.652 416.347 672.631 430.959 688.716C433.648 659.016 431.532 633.951 425.874 613.5C376.5 616.5 359.5 616.5 334.5 618.5C310.724 620.402 291.5 622 271 623.5Z" fill="#020201"/>
<path id="white_mask" d="M337.195 689.114C347.999 693.331 404.012 696.379 419.609 671.359C428.724 656.737 426 643 422 620C390.175 622.5 373 622.5 352.5 624C325.519 625.974 317.531 628 287.5 629C289 663.5 310 678.5 337.195 689.114Z" fill="white"/>
<mask id="mask0_123_2" style="mask-type:alpha" maskUnits="userSpaceOnUse" x="287" y="620" width="139" height="72">
<path id="white_mask_2" d="M337.195 689.114C347.999 693.331 404.012 696.379 419.609 671.359C428.724 656.737 426 643 422 620C390 622 373 622.5 352.5 624C325.519 625.974 313.5 627.5 287.5 629C289 663.5 310 678.5 337.195 689.114Z" fill="white"/>
</mask>
<g mask="url(#mask0_123_2)">
<g id="eye_ball">
<ellipse id="cyan" cx="67.7842" cy="69.8848" rx="67.7842" ry="69.8848" transform="matrix(1 0 0 -1 303.501 687.15)" fill="#1097AF"/>
<path id="cyan_2" d="M436.979 599.019C443.272 631.607 425.386 672.993 379.01 683.206C352.096 689.134 314.148 660.296 315.984 641.724C333.47 618.34 379.454 601.814 406.892 597.915C414.814 596.789 435.411 590.896 436.979 599.019Z" fill="#34DCED"/>
<ellipse id="black" cx="50.8381" cy="53.5714" rx="50.8381" ry="53.5714" transform="matrix(1 0 0 -1 324.055 669.829)" fill="black"/>
<ellipse id="highlight_upper" cx="8.30903" cy="9.18369" rx="8.30903" ry="9.18369" transform="matrix(1 0 0 -1 388.997 655.616)" fill="#F0EFEF"/>
<ellipse id="highlight_lower" cx="15.7434" cy="15.7164" rx="15.7434" ry="15.7164" transform="matrix(1 0 0 -1 326.022 631.769)" fill="#F0EFEF"/>
</g>
</g>
</g>
<g id="eye_L">
<path id="outer_2" d="M712.524 650.709C670.378 675.684 616.266 647.067 604.298 666.839C596.657 643.362 590 622.5 586.499 606C585.856 602.97 585.391 597.534 585.321 592C606 590.5 650.253 587.984 665.5 587C681 586 728 582 757.93 579.5C755.264 608.274 736.42 636.548 712.524 650.709Z" fill="#020201"/>
<path id="white_mask_3" d="M745.2 587.5C743 616 728.388 631.671 698.996 647.067C688.069 652.791 634.504 663.027 617.306 647.587C600.5 632.5 592.5 615.5 591 597C600 596 644.369 594.872 665 594C684.806 593.163 711.5 590.5 745.2 587.5Z" fill="white"/>
<mask id="mask1_123_2" style="mask-type:alpha" maskUnits="userSpaceOnUse" x="591" y="587" width="155" height="69">
<path id="white_mask_4" d="M745.2 587.5C743 616 728.388 631.671 698.996 647.067C688.069 652.791 634.504 663.027 617.306 647.587C600.5 632.5 592.5 615.5 591 597C600 596 644.369 594.372 665 593.5C684.806 592.663 711.5 590.5 745.2 587.5Z" fill="white"/>
</mask>
<g mask="url(#mask1_123_2)">
<g id="eye_ball_2">
<circle id="cyan_3" cx="652.902" cy="582.067" r="70.0034" fill="#1097AF"/>
<path id="cyan_4" d="M716.038 580.894C722.331 613.483 692.163 649.009 656.909 649.009C629.35 649.009 602.091 630.788 605.912 609.213C622.191 589.413 672.778 575.847 700.216 571.948C708.138 570.822 714.47 572.772 716.038 580.894Z" fill="#34DCED"/>
<circle id="black_2" cx="649.372" cy="581.249" r="53.7021" fill="black"/>
<circle id="highlight_upper_2" cx="675.993" cy="591.276" r="15.5807" fill="#F0EFEF"/>
<circle id="highlight_lower_2" cx="635.615" cy="616.671" r="8.99727" fill="#F0EFEF"/>
</g>
</g>
</g>
</g>
<g id="zzz">
<path id="Vector 22" d="M660 164L727.5 149L679 226.5L744.5 209.5" stroke="black" stroke-width="26" stroke-linecap="round" stroke-linejoin="round"/>
<path id="Vector 23" d="M752 86L819.5 71L771 148.5L836.5 131.5" stroke="black" stroke-width="26" stroke-linecap="round" stroke-linejoin="round"/>
<path id="Vector 24" d="M865 33L932.5 18L884 95.5L949.5 78.5" stroke="black" stroke-width="26" stroke-linecap="round" stroke-linejoin="round"/>
</g>
<g id="zzz_2">
<path id="Vector 22_2" d="M660 164L727.5 149L679 226.5L744.5 209.5" stroke="white" stroke-width="20" stroke-linecap="round" stroke-linejoin="round"/>
<path id="Vector 23_2" d="M752 86L819.5 71L771 148.5L836.5 131.5" stroke="white" stroke-width="20" stroke-linecap="round" stroke-linejoin="round"/>
<path id="Vector 24_2" d="M865 33L932.5 18L884 95.5L949.5 78.5" stroke="white" stroke-width="20" stroke-linecap="round" stroke-linejoin="round"/>
</g>
</g>
</svg>
